<svg xmlns="http://www.w3.org/2000/svg" width="19.642" height="18.162" viewBox="0 0 19.642 18.162">
  <path id="Path_20744" data-name="Path 20744" d="M189.65,322.847c.489-.24,2.861-1.4,3.3-1.559s.766-.24,1.089.24,1.255,1.559,1.532,1.873.562.36,1.052.12a13.063,13.063,0,0,0,3.884-2.381,14.35,14.35,0,0,0,2.686-3.313c.277-.48.028-.739-.212-.979-.221-.22-.481-.562-.729-.839-.065-.084-.12-.157-.176-.231a5.406,5.406,0,0,1-.305-.573.869.869,0,0,1,.037-.84c.12-.24,1.089-2.6,1.5-3.562s.8-.794,1.089-.794.6-.046.923-.046a1.787,1.787,0,0,1,1.292.6,5.369,5.369,0,0,1,1.689,4,6.124,6.124,0,0,1-.249,1.634,10.888,10.888,0,0,1-1.726,3.322c-.24.313-3.34,5.315-8.249,7.244-4.919,1.909-4.919,1.273-5.8,1.19s-2.861-1.153-3.258-2.279a3.964,3.964,0,0,1-.286-2.28C188.848,323.206,189.171,323.087,189.65,322.847Z" transform="translate(-188.658 -309.964)" fill="#fff" fill-rule="evenodd"/>
</svg>
