<svg id="password" xmlns="http://www.w3.org/2000/svg" width="38.346" height="51.128" viewBox="0 0 38.346 51.128">
  <g id="Group_3936" data-name="Group 3936" transform="translate(0 0)">
    <g id="Group_3935" data-name="Group 3935">
      <path id="Path_6371" data-name="Path 6371" d="M215.076,285.02l-.672,6.043a1.065,1.065,0,0,0,1.059,1.183h4.261a1.065,1.065,0,0,0,1.059-1.183l-.672-6.043a4.214,4.214,0,0,0,1.743-3.426,4.261,4.261,0,0,0-8.521,0A4.214,4.214,0,0,0,215.076,285.02Zm2.517-5.557a2.123,2.123,0,0,1,.919,4.04,1.066,1.066,0,0,0-.595,1.077l.616,5.535h-1.881l.616-5.535a1.066,1.066,0,0,0-.595-1.077,2.123,2.123,0,0,1,.919-4.04Z" transform="translate(-198.421 -249.639)"/>
      <path id="Path_6372" data-name="Path 6372" d="M101.281,19.173h-3.2V14.912a14.912,14.912,0,0,0-29.825,0v4.261h-3.2A1.065,1.065,0,0,0,64,20.238V46.868a4.265,4.265,0,0,0,4.261,4.261H98.086a4.265,4.265,0,0,0,4.261-4.261V20.238A1.065,1.065,0,0,0,101.281,19.173Zm-30.89-4.261a12.782,12.782,0,0,1,25.564,0v4.261h-2.13V14.912a10.652,10.652,0,0,0-21.3,0v4.261h-2.13Zm21.3,0v4.261H74.652V14.912a8.521,8.521,0,0,1,17.043,0Zm8.521,31.955A2.133,2.133,0,0,1,98.086,49H68.261a2.133,2.133,0,0,1-2.13-2.13V21.3h34.086Z" transform="translate(-64)"/>
    </g>
  </g>
</svg>
