<svg xmlns="http://www.w3.org/2000/svg" width="47.15" height="47.151" viewBox="0 0 47.15 47.151">
  <g id="resume" transform="translate(0)">
    <g id="Group_3915" data-name="Group 3915" transform="translate(8.103)">
      <g id="Group_3914" data-name="Group 3914">
        <path id="Path_6360" data-name="Path 6360" d="M.928,13.7a.921.921,0,0,1-.921-.921V2.763A2.766,2.766,0,0,1,2.77,0H36.291a2.766,2.766,0,0,1,2.763,2.763V44.388a2.766,2.766,0,0,1-2.763,2.763H2.77A2.766,2.766,0,0,1,.007,44.388V37.6a.921.921,0,1,1,1.842,0v6.785a.922.922,0,0,0,.921.921H36.291a.922.922,0,0,0,.921-.921V2.763a.922.922,0,0,0-.921-.921H2.77a.922.922,0,0,0-.921.921V12.778A.921.921,0,0,1,.928,13.7Z" transform="translate(-0.007)"/>
      </g>
    </g>
    <g id="Group_3917" data-name="Group 3917" transform="translate(19.154 4.973)">
      <g id="Group_3916" data-name="Group 3916">
        <path id="Path_6361" data-name="Path 6361" d="M128.479,54a8.468,8.468,0,0,1,5.813,14.631.913.913,0,0,1-.1.092,8.457,8.457,0,0,1-11.427,0,.92.92,0,0,1-.1-.092A8.468,8.468,0,0,1,128.479,54Zm0,15.1a6.6,6.6,0,0,0,4.005-1.351,4.6,4.6,0,0,0-8.01,0A6.6,6.6,0,0,0,128.479,69.1Zm1.473-7v-.6a1.473,1.473,0,1,0-2.947,0v.6a1.473,1.473,0,1,0,2.947,0Zm-6.809,4.3a6.389,6.389,0,0,1,2.713-2.274,3.3,3.3,0,0,1-.693-2.025v-.6a3.315,3.315,0,0,1,6.631,0v.6a3.3,3.3,0,0,1-.693,2.025,6.389,6.389,0,0,1,2.713,2.274,6.631,6.631,0,1,0-10.672,0Z" transform="translate(-120.007 -54)"/>
      </g>
    </g>
    <g id="Group_3919" data-name="Group 3919" transform="translate(21.732 40.336)">
      <g id="Group_3918" data-name="Group 3918">
        <path id="Path_6362" data-name="Path 6362" d="M202.928,438H207.9a.921.921,0,0,1,0,1.842h-4.973a.921.921,0,0,1,0-1.842Z" transform="translate(-202.007 -438)"/>
      </g>
    </g>
    <g id="Group_3921" data-name="Group 3921" transform="translate(21.732 35.179)">
      <g id="Group_3920" data-name="Group 3920">
        <path id="Path_6363" data-name="Path 6363" d="M114.928,382H128a.921.921,0,0,1,0,1.842H114.928a.921.921,0,1,1,0-1.842Z" transform="translate(-114.007 -382)"/>
      </g>
    </g>
    <g id="Group_3923" data-name="Group 3923" transform="translate(21.732 30.022)">
      <g id="Group_3922" data-name="Group 3922">
        <path id="Path_6364" data-name="Path 6364" d="M114.928,326H128a.921.921,0,0,1,0,1.842H114.928a.921.921,0,0,1,0-1.842Z" transform="translate(-114.007 -326)"/>
      </g>
    </g>
    <g id="Group_3925" data-name="Group 3925" transform="translate(38.743 24.865)">
      <g id="Group_3924" data-name="Group 3924">
        <path id="Path_6365" data-name="Path 6365" d="M71.557,270.27a.92.92,0,1,1-.27.651A.928.928,0,0,1,71.557,270.27Z" transform="translate(-71.287 -270)"/>
      </g>
    </g>
    <g id="Group_3927" data-name="Group 3927" transform="translate(38.743 30.022)">
      <g id="Group_3926" data-name="Group 3926">
        <path id="Path_6366" data-name="Path 6366" d="M71.557,326.27a.92.92,0,1,1-.27.651A.93.93,0,0,1,71.557,326.27Z" transform="translate(-71.287 -326)"/>
      </g>
    </g>
    <g id="Group_3929" data-name="Group 3929" transform="translate(38.743 35.179)">
      <g id="Group_3928" data-name="Group 3928">
        <path id="Path_6367" data-name="Path 6367" d="M71.557,382.27a.92.92,0,1,1-.27.651A.93.93,0,0,1,71.557,382.27Z" transform="translate(-71.287 -382)"/>
      </g>
    </g>
    <g id="Group_3931" data-name="Group 3931" transform="translate(21.732 24.865)">
      <g id="Group_3930" data-name="Group 3930">
        <path id="Path_6368" data-name="Path 6368" d="M114.928,270H128a.921.921,0,0,1,0,1.842H114.928a.921.921,0,1,1,0-1.842Z" transform="translate(-114.007 -270)"/>
      </g>
    </g>
    <g id="Group_3933" data-name="Group 3933" transform="translate(0 11.482)">
      <g id="Group_3932" data-name="Group 3932">
        <path id="Path_6369" data-name="Path 6369" d="M299.522,125.2a3.868,3.868,0,0,1,5.284,1.416l11.589,20.073a.922.922,0,0,1,.118.358l.816,7.307a.921.921,0,0,1-1.461.844l-5.92-4.36a.921.921,0,0,1-.251-.281l-11.589-20.073A3.872,3.872,0,0,1,299.522,125.2Zm15.742,27.266-.426-3.816-2.665,1.539Zm-4.434-3.628,3.509-2.026-9.3-16.108-3.509,2.026ZM299.7,129.558l.908,1.572,3.509-2.026-.908-1.572a2.026,2.026,0,0,0-3.509,2.026Z" transform="translate(-297.589 -124.675)"/>
      </g>
    </g>
  </g>
</svg>
