<svg xmlns="http://www.w3.org/2000/svg" width="43.144" height="43.473" viewBox="0 0 43.144 43.473">
  <g id="Group_49030" data-name="Group 49030" transform="translate(-4891.971 -1174.718)">
    <path id="Path_39516" data-name="Path 39516" d="M4908.613,1216.844h5.277c.074,0,.147-.009.222-.012,2.6-.092,2.589-.092,2.586-2.732q-.03-18.38-.03-36.762c0-.943-.145-1.313-1.224-1.3q-9.526.089-19.051,0c-1.029-.009-1.194.326-1.189,1.251.035,8.049.021,16.1.021,24.145,0,.258,0,.517-.021.774a.584.584,0,0,1-.656.59.569.569,0,0,1-.558-.579c-.02-.294-.041-.589-.041-.883,0-8.454.012-16.908-.018-25.362,0-.984.34-1.258,1.291-1.254q10.743.047,21.483,0c.975,0,1.285.343,1.28,1.3-.033,4.984.01,9.969-.038,14.952-.011.954.272,1.127,1.185,1.117,4.873-.058,9.746-.018,14.619-.045.955,0,1.371.241,1.364,1.316q-.064,11.741,0,23.481c0,1.107-.386,1.357-1.413,1.355q-20.157-.04-40.317-.016c-.221,0-.443-.006-.665-.005-.427,0-.732-.167-.748-.626-.019-.53.337-.688.8-.7.33-.006.661,0,1.139,0m24.059-11.75h.007q0,4.814,0,9.626c-.005,2.158-.011,2.122,2.134,2.144.774.008.994-.206.984-.986-.045-3.062.006-6.126-.032-9.188-.011-.912.308-1.248,1.221-1.231,2.4.042,4.793.05,7.19.006.91-.017,1.241.282,1.225,1.208-.042,2.656-.012,5.313-.012,7.97,0,2.24,0,2.2,2.189,2.22.783.006.992-.238.989-1q-.037-10.738,0-21.475c0-.862-.3-1.035-1.092-1.029-4.576.037-9.152.051-13.727,0-.91-.01-1.1.273-1.094,1.109C4917.987,1198.009,4917.966,1201.552,4917.966,1205.094Zm-19.678,11.735c1,.036,1.992.005,2.99.005v-.021c1.146,0,2.292.066,3.432-.013m24.724-4.868h0c0-1.475-.016-2.951.008-4.426.009-.566-.188-.787-.771-.779-1.841.026-3.683.025-5.524.006-.555-.005-.778.168-.772.76q.041,4.26.007,8.52c-.006.612.163.837.808.823,1.807-.042,3.616-.049,5.423,0,.733.019.853-.292.835-.919C4929.409,1214.588,4929.434,1213.26,4929.434,1211.932Z" transform="translate(-0.001 0)"/>
    <path id="Path_39517" data-name="Path 39517" d="M4976.742,1223.629a19,19,0,0,0,.014,1.988c.1.935-.27,1.256-1.185,1.221-1.361-.051-2.728-.039-4.093,0-.807.02-1.126-.309-1.105-1.115.034-1.439.026-2.88,0-4.319-.011-.747.293-1.073,1.055-1.058,1.439.029,2.879.033,4.32,0,.78-.017,1.055.335,1.028,1.072s-.006,1.476-.006,2.216Zm-3.184,1.87c1.9.009,1.9.009,1.9-1.9a5.926,5.926,0,0,1,.006-.879c.138-.884-.236-1.208-1.093-1.076a4.453,4.453,0,0,1-.659.005c-2.018,0-2.018,0-2.018,2.013C4971.7,1225.491,4971.7,1225.491,4973.558,1225.5Z" transform="translate(-72.32 -42.083)"/>
    <path id="Path_39518" data-name="Path 39518" d="M4973.657,1331.774c3.208,0,3.208,0,3.208,3.181,0,.775-.016,1.549,0,2.324.013.635-.242.967-.906.962-1.512-.011-3.024-.016-4.537,0-.646.006-.958-.271-.953-.921.006-1.549.005-3.1.005-4.648,0-.649.322-.924.969-.9C4972.182,1331.795,4972.92,1331.775,4973.657,1331.774Zm1.9,3.249c0-1.938,0-1.938-1.776-1.937-1.987,0-1.987,0-1.987,1.955,0,1.874,0,1.874,1.837,1.877C4975.554,1336.921,4975.554,1336.921,4975.553,1335.023Z" transform="translate(-72.41 -144.867)"/>
    <path id="Path_39519" data-name="Path 39519" d="M5097.915,1335.02c0,3.183,0,3.184-3.168,3.184-.737,0-1.476-.023-2.213.007-.65.026-.963-.239-.96-.9q.011-2.324,0-4.647c0-.63.24-.946.922-.933q2.211.042,4.424,0c.7-.013,1.028.238,1,.963C5097.892,1333.47,5097.914,1334.246,5097.915,1335.02Zm-3.145-1.968c-1.929,0-1.929,0-1.931,1.909v.11c0,1.814,0,1.814,1.809,1.814,1.968,0,1.968,0,1.966-1.968C5096.615,1333.052,5096.615,1333.052,5094.771,1333.052Z" transform="translate(-184.12 -144.836)"/>
    <path id="Path_39520" data-name="Path 39520" d="M5097.868,1223.587c0,.738-.036,1.477.01,2.212.05.789-.3,1.037-1.047,1.02q-2.154-.05-4.312,0c-.725.017-1-.3-.993-.985.011-1.511.014-3.023,0-4.535-.006-.7.29-.988,1-.972q2.155.049,4.314,0c.767-.018,1.069.295,1.035,1.05C5097.841,1222.111,5097.868,1222.849,5097.868,1223.587Zm-3.165-1.953c-1.914,0-1.914,0-1.911,1.915,0,.073,0,.147,0,.22.005,1.717.005,1.717,1.774,1.715,2,0,2,0,2-2.024C5096.564,1221.637,5096.564,1221.637,5094.7,1221.633Z" transform="translate(-184.074 -42.068)"/>
    <path id="Path_39521" data-name="Path 39521" d="M5091.646,1443.9c0-.809,0-1.618,0-2.426,0-.64.287-.918.948-.905,1.435.03,2.87.024,4.305,0,.684-.012,1.035.25,1.036.957,0,1.582.017,3.163.029,4.745,0,.553-.276.8-.815.8-1.547,0-3.092-.015-4.636.008-.627.01-.87-.294-.876-.863-.007-.772,0-1.543,0-2.314Zm5.02-.009c0-1.981,0-1.981-1.728-1.982-2.046,0-2.046,0-2.043,2.012,0,1.873,0,1.873,1.858,1.869C5096.666,1445.788,5096.666,1445.788,5096.666,1443.893Z" transform="translate(-184.174 -245.23)"/>
    <path id="Path_39522" data-name="Path 39522" d="M4969.645,1443.9c0-.809,0-1.618,0-2.426,0-.64.286-.918.95-.905,1.434.03,2.869.024,4.3,0,.683-.012,1.035.25,1.035.957,0,1.582.018,3.163.029,4.745.005.553-.277.8-.816.8-1.544,0-3.091-.015-4.635.008-.625.01-.87-.294-.875-.863-.009-.772,0-1.543,0-2.314Zm5.019-.009c0-1.981,0-1.981-1.727-1.982-2.046,0-2.046,0-2.045,2.012,0,1.873,0,1.873,1.859,1.869C4974.664,1445.788,4974.664,1445.788,4974.664,1443.893Z" transform="translate(-71.637 -245.23)"/>
    <path id="Path_39523" data-name="Path 39523" d="M5091.646,1554.9c0-.809,0-1.617,0-2.426,0-.639.287-.918.948-.9,1.435.03,2.87.024,4.305,0,.684-.011,1.035.25,1.036.957,0,1.582.017,3.163.029,4.744,0,.553-.276.8-.815.8-1.547,0-3.092-.016-4.636.008-.627.01-.87-.295-.876-.863-.007-.771,0-1.543,0-2.314Zm5.02-.009c0-1.981,0-1.981-1.728-1.982-2.046,0-2.046,0-2.043,2.012,0,1.873,0,1.873,1.858,1.869C5096.666,1556.788,5096.666,1556.788,5096.666,1554.893Z" transform="translate(-184.174 -347.62)"/>
    <path id="Path_39524" data-name="Path 39524" d="M4969.645,1554.9c0-.809,0-1.617,0-2.426,0-.639.286-.918.95-.9,1.434.03,2.869.024,4.3,0,.683-.011,1.035.25,1.035.957,0,1.582.018,3.163.029,4.744.005.553-.277.8-.816.8-1.544,0-3.091-.016-4.635.008-.625.01-.87-.295-.875-.863-.009-.771,0-1.543,0-2.314Zm5.019-.009c0-1.981,0-1.981-1.727-1.982-2.046,0-2.046,0-2.045,2.012,0,1.873,0,1.873,1.859,1.869C4974.664,1556.788,4974.664,1556.788,4974.664,1554.893Z" transform="translate(-71.637 -347.62)"/>
    <path id="Path_39525" data-name="Path 39525" d="M5255.653,1449.381c0,2.814,0,2.814-2.77,2.819-2.782.005-2.792.005-2.779-2.829.013-3.121-.357-2.705,2.676-2.734h.113C5256.111,1446.679,5255.6,1446.228,5255.653,1449.381Zm-2.765-1.423c-1.6.024-1.454-.229-1.46,1.355-.012,1.623,0,1.574,1.522,1.643,1,.046,1.55-.083,1.451-1.329C5254.271,1447.966,5254.368,1447.958,5252.889,1447.958Z" transform="translate(-330.346 -250.822)"/>
    <path id="Path_39526" data-name="Path 39526" d="M5341.287,1452.1c-2.775,0-2.786,0-2.772-2.827.013-3.03-.388-2.748,2.689-2.73,3.268.019,2.848-.5,2.864,2.86C5344.082,1452.1,5344.069,1452.1,5341.287,1452.1Zm.235-4.243c-1.705,0-1.635.007-1.728,1.744-.055,1.044.292,1.317,1.283,1.26,1.969-.113,1.593.25,1.734-1.717C5342.9,1447.9,5342.372,1447.668,5341.522,1447.861Z" transform="translate(-411.896 -250.726)"/>
  </g>
</svg>
