<svg xmlns="http://www.w3.org/2000/svg" width="36.747" height="36.747" viewBox="0 0 36.747 36.747">
  <g id="Group_49706" data-name="Group 49706" transform="translate(-1331.252 -1920.126)">
    <circle id="Ellipse_4227" data-name="Ellipse 4227" cx="18.374" cy="18.374" r="18.374" transform="translate(1331.252 1920.126)" fill="#084199"/>
    <g id="Group_48864" data-name="Group 48864" transform="translate(1339.178 1928.869)">
      <path id="Path_39510" data-name="Path 39510" d="M584.1,737.776a3.023,3.023,0,0,0-4.248,0l-5.243,6.507-2.5,3.1c-.3.367-.647.917-1.03,1.427l-.225-.231-1.694-1.741c-2.7-2.776-6.948,1.474-4.248,4.248,1.394,1.432,2.817,3.434,4.707,4.19,2.072.828,3.91-.168,5.242-1.785,3.121-3.786,6.159-7.644,9.238-11.465A3.1,3.1,0,0,0,584.1,737.776Z" transform="translate(-564.045 -736.902)" fill="#fff"/>
    </g>
  </g>
</svg>
