<svg width="334" height="263" viewBox="0 0 334 263" fill="none" xmlns="http://www.w3.org/2000/svg"><g id="Group 48867"><g id="Group 47317"><g id="Group 47317_2"><path id="rotate_3" style="transform-origin: center; transform-box: fill-box; animation: spinner 2s linear infinite;" d="M320.127 254.235L313.635 255.435L312.184 262.278L310.733 255.435L304.241 254.235L310.705 252.655L312.184 246.191L313.663 252.655L320.127 254.235Z" fill="#084199"/><path id="rotate_2" style="transform-origin: center; transform-box: fill-box; animation: spinnerR 2s linear infinite;" d="M70.5229 202.194L64.0309 203.394L62.58 210.237L61.129 203.394L54.637 202.194L61.101 200.614L62.5789 194.15L64.058 200.614L70.5229 202.194Z" fill="#084199"/><path id="rotate_1" style="transform-origin: center; transform-box: fill-box; animation: spinner 2s linear infinite;" d="M108.402 21.781L101.91 22.981L100.459 29.826L99.011 22.981L92.519 21.781L98.983 20.202L100.462 13.738L101.94 20.202L108.402 21.781Z" fill="#084199"/><path id="rotate_4" style="transform-origin: center; transform-box: fill-box; animation: spinnerR 2s linear infinite;" d="M328.248 199.766L324.62 200.437L323.809 204.262L322.995 200.437L319.366 199.764L322.979 198.881L323.806 195.268L324.633 198.881L328.248 199.766Z" fill="#084199"/><path id="rotate_5" style="transform-origin: center; transform-box: fill-box; animation: spinnerR 2s linear infinite;" d="M333.604 147.305L329.976 147.976L329.165 151.801L328.354 147.976L324.725 147.303L328.338 146.42L329.165 142.807L329.991 146.42L333.604 147.305Z" fill="#084199"/><path id="rotate_6" style="transform-origin: center; transform-box: fill-box; animation: spinner 2s linear infinite;" d="M302.801 13.734L299.172 14.405L298.361 18.23L297.55 14.405L293.921 13.732L297.534 12.849L298.36 9.23599L299.187 12.849L302.801 13.734Z" fill="#084199"/><path id="rotate_7" style="transform-origin: center; transform-box: fill-box; animation: spinnerR 2s linear infinite;" d="M38.453 211.102L34.824 211.773L34.013 215.598L33.202 211.773L29.573 211.1L33.186 210.217L34.012 206.604L34.838 210.217L38.453 211.102Z" fill="#084199"/><path id="rotate_8" style="transform-origin: center; transform-box: fill-box; animation: spinnerR 2s linear infinite;" d="M44.1 105.061L40.473 105.729L39.662 109.554L38.851 105.729L35.222 105.056L38.835 104.173L39.661 100.56L40.488 104.173L44.1 105.061Z" fill="#084199"/><path id="Path 27726" d="M247.81 252.461C247.543 252.478 247.292 252.595 247.108 252.79C246.925 252.986 246.823 253.243 246.823 253.511C246.823 253.779 246.925 254.036 247.108 254.232C247.292 254.427 247.543 254.544 247.81 254.561C248.077 254.544 248.328 254.427 248.512 254.232C248.695 254.036 248.797 253.779 248.797 253.511C248.797 253.243 248.695 252.986 248.512 252.79C248.328 252.595 248.077 252.478 247.81 252.461V252.461Z" fill="#084199"/><path id="Path 27727" d="M29.051 49.96C28.7774 49.9684 28.518 50.083 28.3275 50.2795C28.137 50.4759 28.0304 50.7388 28.0304 51.0125C28.0304 51.2861 28.137 51.5491 28.3275 51.7455C28.518 51.942 28.7774 52.0566 29.051 52.065C29.3245 52.0566 29.584 51.942 29.7745 51.7455C29.965 51.5491 30.0715 51.2861 30.0715 51.0125C30.0715 50.7388 29.965 50.4759 29.7745 50.2795C29.584 50.083 29.3245 49.9684 29.051 49.96V49.96Z" fill="#084199"/><path id="Path 27728" d="M298.362 246.545C298.095 246.561 297.844 246.679 297.66 246.874C297.477 247.07 297.375 247.327 297.375 247.595C297.375 247.863 297.477 248.12 297.66 248.316C297.844 248.511 298.095 248.628 298.362 248.645C298.629 248.628 298.88 248.511 299.064 248.316C299.247 248.12 299.349 247.863 299.349 247.595C299.349 247.327 299.247 247.07 299.064 246.874C298.88 246.679 298.629 246.561 298.362 246.545Z" fill="#084199"/><path id="Path 27730" d="M25.2509 124.623C24.9837 124.639 24.7328 124.757 24.5493 124.952C24.3659 125.147 24.2638 125.405 24.2638 125.673C24.2638 125.941 24.3659 126.198 24.5493 126.394C24.7328 126.589 24.9837 126.706 25.2509 126.723C25.5182 126.706 25.7692 126.589 25.9526 126.394C26.136 126.198 26.2381 125.941 26.2381 125.673C26.2381 125.405 26.136 125.147 25.9526 124.952C25.7692 124.757 25.5182 124.639 25.2509 124.623V124.623Z" fill="#084199"/><path id="Path 27731" d="M0.718994 113.152C0.521673 113.152 0.332429 113.23 0.192902 113.37C0.0533745 113.509 -0.0250244 113.699 -0.0250244 113.896C-0.0250244 114.093 0.0533745 114.283 0.192902 114.422C0.332429 114.562 0.521673 114.64 0.718994 114.64C0.916315 114.64 1.10553 114.562 1.24506 114.422C1.38458 114.283 1.46298 114.093 1.46298 113.896C1.46298 113.699 1.38458 113.509 1.24506 113.37C1.10553 113.23 0.916315 113.152 0.718994 113.152V113.152Z" fill="#084199"/><path id="Path 27732" d="M254.253 0C254.062 0.00989493 253.882 0.0927013 253.751 0.231331C253.619 0.36996 253.546 0.553832 253.546 0.744999C253.546 0.936166 253.619 1.12004 253.751 1.25867C253.882 1.3973 254.062 1.4801 254.253 1.49C254.444 1.4801 254.624 1.3973 254.755 1.25867C254.887 1.12004 254.96 0.936166 254.96 0.744999C254.96 0.553832 254.887 0.36996 254.755 0.231331C254.624 0.0927013 254.444 0.00989493 254.253 0Z" fill="#084199"/><path id="Path 27733" d="M123.059 254.743C122.862 254.743 122.672 254.821 122.533 254.961C122.393 255.1 122.315 255.29 122.315 255.487C122.315 255.684 122.393 255.874 122.533 256.013C122.672 256.153 122.862 256.231 123.059 256.231C123.256 256.231 123.446 256.153 123.585 256.013C123.725 255.874 123.803 255.684 123.803 255.487C123.803 255.29 123.725 255.1 123.585 254.961C123.446 254.821 123.256 254.743 123.059 254.743V254.743Z" fill="#084199"/><path id="Path 27734" d="M93.537 241.066C90.937 241.066 90.937 245.099 93.537 245.099C96.137 245.099 96.137 241.066 93.537 241.066Z" fill="#084199"/></g></g><g id="Group 46957"><path id="Ellipse 4152" d="M180.97 257.521C245.639 257.521 298.063 205.097 298.063 140.428C298.063 75.7593 245.639 23.335 180.97 23.335C116.301 23.335 63.877 75.7593 63.877 140.428C63.877 205.097 116.301 257.521 180.97 257.521Z" fill="#084199"/><g id="Group 46949"><g id="spin" style="transform-origin: center; transform-box: fill-box; animation: spin 2s linear infinite;"><path id="Path 39510" d="M236.422 83.797C229.688 76.914 215.522 75.65 208.962 83.797L175.076 125.86C169.697 132.536 164.317 139.213 158.938 145.89C157.029 148.26 154.756 151.815 152.278 155.116L150.823 153.616L139.866 142.364C122.405 124.421 94.957 151.895 112.405 169.825C121.413 179.082 130.614 192.025 142.828 196.905C156.222 202.261 168.101 195.816 176.711 185.368C196.883 160.892 216.523 135.956 236.422 111.258C243.05 103.032 244.312 91.862 236.422 83.797Z" fill="white"/></g></g></g></g><style> @keyframes spinner { 0% { transform: rotate(0deg); } 100% { transform: rotate(360deg); } } @keyframes spinnerR { 0% { transform: rotate(0deg); } 100% { transform: rotate(-360deg); } } @keyframes spin { 0% { transform: rotate(0deg); } 100% { transform: rotate(10deg); } }</style></svg>