<svg xmlns="http://www.w3.org/2000/svg" width="50.881" height="51.806" viewBox="0 0 50.881 51.806">
  <g id="jvL85h.tif" transform="translate(5795.586 4969.759)">
    <g id="Group_49465" data-name="Group 49465" transform="translate(-5795.586 -4969.759)">
      <path id="Path_40344" data-name="Path 40344" d="M-5705.091-4969.759a23.892,23.892,0,0,1,3.761.663c6.962,2.18,10.914,10,8.326,16.569a30.526,30.526,0,0,1-3.616,6.067c-2.4,3.453-4.953,6.788-7.574,10.073a1.231,1.231,0,0,1-2.14.042,125.561,125.561,0,0,1-9.41-12.584,15.077,15.077,0,0,1-2.5-6.815,12.826,12.826,0,0,1,7.972-12.964,12.725,12.725,0,0,1,4.091-.944,7.079,7.079,0,0,0,.7-.107Zm-.168,17.993a5.006,5.006,0,0,0,5.01-5.048,5.034,5.034,0,0,0-5.049-5.021,5.039,5.039,0,0,0-5.012,5.06A5.013,5.013,0,0,0-5705.259-4951.766Z" transform="translate(5728.37 4969.759)"/>
      <path id="Path_40345" data-name="Path 40345" d="M-5795.585-4851.087c.186-.229.1-.5.105-.751.006-3.23.014-6.459-.006-9.689,0-.561.124-.654.649-.444,1.446.578,2.914,1.1,4.371,1.655.674.257.916.655.727,1.152s-.645.615-1.316.364c-.791-.295-1.583-.583-2.368-.895-.329-.13-.466-.094-.464.3.009,2.492.015,4.985-.005,7.478,0,.45.276.525.583.641q4.956,1.849,9.91,3.705a5.309,5.309,0,0,1,.543.212.753.753,0,0,1,.458,1.009.753.753,0,0,1-1.051.479c-1.381-.5-2.759-1.021-4.137-1.535-1.9-.71-3.814-1.411-5.71-2.144-.479-.185-.6-.083-.594.411q.025,3.478,0,6.957a.645.645,0,0,0,.5.707q8.093,3,16.174,6.041a1.271,1.271,0,0,0,.991-.09q8.083-3.119,16.163-6.247a1.307,1.307,0,0,1,1.155.052q5.968,2.87,11.954,5.7c.643.306.646.305.646-.424,0-2.21-.019-4.421.015-6.632a.921.921,0,0,0-.637-.974q-6.194-2.924-12.374-5.877c-.176-.083-.353-.165-.526-.254a.778.778,0,0,1-.415-1.132.764.764,0,0,1,1.115-.314q1.852.868,3.7,1.748c2.833,1.348,5.671,2.689,8.495,4.058.517.25.646.179.64-.4q-.035-3.51,0-7.022a.817.817,0,0,0-.576-.874c-1.027-.457-2.048-.935-3.048-1.45a.7.7,0,0,0-.986.164,3.865,3.865,0,0,1-4.495.769,3.957,3.957,0,0,1-2.2-4.067,3.93,3.93,0,0,1,2.959-3.332,3.939,3.939,0,0,1,4.885,4.242.589.589,0,0,0,.421.727c1.354.627,2.69,1.3,4.054,1.905a.863.863,0,0,1,.578.936q-.023,9.264-.01,18.528c0,3.6-.009,7.191.009,10.785,0,.573-.108.644-.631.392-4.543-2.186-9.1-4.342-13.648-6.521a1.33,1.33,0,0,0-1.162-.038q-8.016,3.117-16.043,6.2a1.44,1.44,0,0,1-1.117.062q-8.805-3.319-17.626-6.594a.7.7,0,0,1-.555-.785c.021-2.666.013-5.332.007-8,0-.251.08-.523-.105-.752v-.26a1.063,1.063,0,0,0,.109-.628q0-4.184,0-8.368a1.133,1.133,0,0,0-.11-.628Zm49.276,20.68c0-.954-.026-1.908.011-2.86a.856.856,0,0,0-.585-.933q-6.049-2.847-12.073-5.748a1.382,1.382,0,0,0-1.22-.044c-5.364,2.082-10.736,4.142-16.1,6.224a1.419,1.419,0,0,1-1.107,0c-5.283-1.988-10.575-3.954-15.857-5.944-.5-.187-.664-.167-.654.428.031,1.928.038,3.858,0,5.786a.9.9,0,0,0,.708,1.021q7.914,2.923,15.808,5.9a1.424,1.424,0,0,0,1.107-.005c5.364-2.081,10.735-4.141,16.1-6.225a1.525,1.525,0,0,1,1.343.047c3.957,1.907,7.932,3.777,11.89,5.681.521.25.664.178.644-.4C-5746.333-4828.457-5746.31-4829.432-5746.31-4830.407Zm-7.37-25.467a2.318,2.318,0,0,0,2.328-2.3,2.341,2.341,0,0,0-2.335-2.37,2.38,2.38,0,0,0-2.343,2.315A2.342,2.342,0,0,0-5753.679-4855.874Z" transform="translate(5795.585 4876.189)"/>
    </g>
  </g>
</svg>
