<svg xmlns="http://www.w3.org/2000/svg" width="43.56" height="50.884" viewBox="0 0 43.56 50.884">
  <g id="GXWits" transform="translate(-846.011 -767.505)">
    <g id="Group_49444" data-name="Group 49444" transform="translate(846.011 767.505)">
      <path id="Path_40339" data-name="Path 40339" d="M846.021,792.936c0-5.678-.014-11.356,0-17.034a8.325,8.325,0,0,1,6.767-8.237,7.988,7.988,0,0,1,1.628-.152q9.535,0,19.07-.008a1.838,1.838,0,0,1,1.41.575q7.044,7.073,14.116,14.116a1.731,1.731,0,0,1,.554,1.317c-.01,8.84.007,17.68-.017,26.519a8.323,8.323,0,0,1-8.388,8.343q-13.384.021-26.767,0a8.329,8.329,0,0,1-8.375-8.36c-.023-5.694-.005-11.389-.005-17.084Zm2.114-.028h0v16.737a6.277,6.277,0,0,0,6.608,6.616q3.551,0,7.1,0c6.423,0,12.846.015,19.269-.011a6.217,6.217,0,0,0,6.332-6.375c.01-8.36,0-16.72.019-25.08,0-.462-.155-.54-.567-.538-3.046.016-6.092,0-9.138.013a4.743,4.743,0,0,1-4.93-4.942c.015-3.063,0-6.125.015-9.188,0-.43-.144-.516-.541-.516-5.413.011-10.826,0-16.24.011a14.882,14.882,0,0,0-2.824.117,6.264,6.264,0,0,0-5.1,6.323Q848.125,784.49,848.135,792.908Zm37.524-10.757L874.946,771.4c0,2.624,0,5.338,0,8.052,0,.1,0,.2.006.3a2.6,2.6,0,0,0,2.648,2.375q3.848,0,7.7,0A3.379,3.379,0,0,0,885.659,782.151Z" transform="translate(-846.011 -767.505)"/>
      <path id="Path_40340" data-name="Path 40340" d="M934.088,1160.042H946.85c.165,0,.331,0,.5,0a1.066,1.066,0,0,1,1.153,1.041,1.077,1.077,0,0,1-1.162,1.087c-1.242.01-2.483,0-3.724,0l-22.644-.005a2.77,2.77,0,0,1-.544-.031,1.056,1.056,0,0,1-.862-1.064,1.081,1.081,0,0,1,.921-1.018,2.28,2.28,0,0,1,.346-.022h13.258Z" transform="translate(-912.255 -1121.039)"/>
      <path id="Path_40341" data-name="Path 40341" d="M934.035,1088.634q-6.6,0-13.209,0c-.786,0-1.278-.427-1.266-1.077s.492-1.042,1.252-1.042q13.234,0,26.468,0a1.065,1.065,0,1,1,.014,2.109q-6.63,0-13.259,0Z" transform="translate(-912.253 -1054.822)"/>
      <path id="Path_40342" data-name="Path 40342" d="M931.551,1014.946H921.026a2.218,2.218,0,0,1-.689-.057,1.1,1.1,0,0,1-.773-1.042,1.035,1.035,0,0,1,.819-.994,2.945,2.945,0,0,1,.64-.049q10.624-.006,21.247-.007a2.638,2.638,0,0,1,.445.022,1.062,1.062,0,0,1,.913,1.072,1.046,1.046,0,0,1-.911,1.021,8.351,8.351,0,0,1-1.09.034Q936.589,1014.948,931.551,1014.946Z" transform="translate(-912.257 -988.427)"/>
    </g>
  </g>
</svg>
