<svg xmlns="http://www.w3.org/2000/svg" width="46.802" height="46.795" viewBox="0 0 46.802 46.795">
  <g id="Group_49466" data-name="Group 49466" transform="translate(1361.091 5436.68)">
    <path id="Path_40346" data-name="Path 40346" d="M-1314.292-5413.6a23.658,23.658,0,0,1-2.354,10.545,23.405,23.405,0,0,1-3.766,5.544,23.658,23.658,0,0,1-5.107,4.221,22.251,22.251,0,0,1-3.544,1.758c-.863.338-1.747.6-2.63.883-.341.107-.692.125-1.031.222a10.327,10.327,0,0,1-1.138.221c-.381.064-.762.127-1.148.161s-.769.077-1.154.1a23.3,23.3,0,0,1-5.858-.345,23.81,23.81,0,0,1-3.032-.794,22.819,22.819,0,0,1-6.391-3.268,23.72,23.72,0,0,1-3.935-3.6,25.334,25.334,0,0,1-2.23-3.024c-.377-.587-.682-1.208-1-1.825a22.567,22.567,0,0,1-2.286-7.43,23.5,23.5,0,0,1-.041-5.728,23.584,23.584,0,0,1,1.792-6.7,1.815,1.815,0,0,0,.138-.484,1.133,1.133,0,0,1,.233-.4c.358-.544.608-1.144.948-1.7a25.4,25.4,0,0,1,2.773-3.743,24.379,24.379,0,0,1,2.56-2.435,22.521,22.521,0,0,1,4.333-2.812,9.592,9.592,0,0,0,.928-.451,6.2,6.2,0,0,1,1.118-.443c.385-.153.781-.282,1.174-.414a22.684,22.684,0,0,1,5.682-1.092,23.015,23.015,0,0,1,6.468.462,25.084,25.084,0,0,1,3.673,1.095c.5.191.986.4,1.464.637a18.168,18.168,0,0,1,3.515,2.109,2.028,2.028,0,0,1,.574,2.22,2.087,2.087,0,0,1-1.8,1.422,2.211,2.211,0,0,1-1.442-.4,19.046,19.046,0,0,0-7.055-3.017,19.146,19.146,0,0,0-6.275-.225,18.973,18.973,0,0,0-9.045,3.675,17.85,17.85,0,0,0-3.778,3.754c-.29.4-.593.782-.848,1.2a21.122,21.122,0,0,0-1.861,3.657,19.13,19.13,0,0,0-1.028,3.993,19.114,19.114,0,0,0,.518,7.931,18.591,18.591,0,0,0,1.953,4.563,19.182,19.182,0,0,0,3.27,4.138,19,19,0,0,0,10.485,5.118,18.786,18.786,0,0,0,10.767-1.554,19.88,19.88,0,0,0,4.955-3.285,19.223,19.223,0,0,0,2.2-2.387,5.646,5.646,0,0,0,.763-1.07,8.935,8.935,0,0,1,.535-.813,19.378,19.378,0,0,0,2.367-6.059,20.2,20.2,0,0,0,.366-4.812,8.891,8.891,0,0,1-.056-1.493,2.1,2.1,0,0,1,1.814-1.719,2.07,2.07,0,0,1,2.205,1.285,2.905,2.905,0,0,1,.178.97C-1314.326-5414.58-1314.274-5413.93-1314.292-5413.6Z"/>
    <path id="Path_40347" data-name="Path 40347" d="M-1150.607-5208.236a.548.548,0,0,0,.265.511,41.37,41.37,0,0,1,3.976,3.813c.254.274.26.268.544,0,1.744-1.627,3.531-3.209,5.393-4.7,1.789-1.432,3.634-2.791,5.551-4.052,1.309-.86,2.632-1.7,4-2.459,1.037-.58,2.09-1.13,3.17-1.628a1.811,1.811,0,0,0,.6-.363.279.279,0,0,1,.141-.09,6.29,6.29,0,0,0,1.52-.559c.218-.09.5-.288.8-.092.189.124.234.257.085.446a8.049,8.049,0,0,1-.729.745c-1.542,1.512-3.079,3.029-4.628,4.534-1.339,1.3-2.7,2.58-4.033,3.887-.439.43-.9.839-1.334,1.271-.548.54-1.072,1.105-1.643,1.621-1.736,1.566-3.394,3.215-5.112,4.8a3.264,3.264,0,0,0-.67.683,1.155,1.155,0,0,1-.526.482,3.278,3.278,0,0,0-.625.568q-1.156,1.083-2.312,2.167c-.277.261-.555.224-.65-.14a1.765,1.765,0,0,0-.285-.507c-.546-.871-1.1-1.735-1.655-2.6-.107-.167-.206-.34-.444-.35-.1,0-.133-.075-.075-.16.1-.15.022-.263-.056-.386-.8-1.276-1.594-2.563-2.416-3.829-.542-.835-1.046-1.693-1.572-2.537q-1.051-1.686-2.09-3.38c-.079-.129-.252-.265-.06-.443a.432.432,0,0,1,.581-.078,30.825,30.825,0,0,1,3.986,2.833C-1150.812-5208.149-1150.717-5208-1150.607-5208.236Z" transform="translate(-193.891 -206.358)"/>
  </g>
</svg>
