<svg xmlns="http://www.w3.org/2000/svg" width="20.319" height="19.395" viewBox="0 0 20.319 19.395">
  <g id="Group_9" data-name="Group 9" transform="translate(0 0)">
    <g id="Group_6" data-name="Group 6" transform="translate(0)">
      <path id="Path_5" data-name="Path 5" d="M187.678,142.365h-7.786a6.274,6.274,0,0,1-6.267-6.267v-6.861a6.274,6.274,0,0,1,6.267-6.267h7.786a6.274,6.274,0,0,1,6.267,6.267V136.1A6.274,6.274,0,0,1,187.678,142.365Zm-7.786-18a4.88,4.88,0,0,0-4.874,4.874V136.1a4.879,4.879,0,0,0,4.874,4.874h7.786a4.88,4.88,0,0,0,4.874-4.874v-6.861a4.88,4.88,0,0,0-4.874-4.874Z" transform="translate(-173.625 -122.97)"/>
    </g>
    <g id="Group_7" data-name="Group 7" transform="translate(4.581 4.119)">
      <path id="Path_6" data-name="Path 6" d="M193.212,146.721a5.578,5.578,0,1,1,5.579-5.578A5.584,5.584,0,0,1,193.212,146.721Zm0-9.764a4.186,4.186,0,1,0,4.186,4.186A4.19,4.19,0,0,0,193.212,136.957Z" transform="translate(-187.634 -135.564)"/>
    </g>
    <g id="Group_8" data-name="Group 8" transform="translate(14.495 3.133)">
      <path id="Path_7" data-name="Path 7" d="M220.263,133.707a1.158,1.158,0,1,1-1.157-1.157A1.157,1.157,0,0,1,220.263,133.707Z" transform="translate(-217.948 -132.55)"/>
    </g>
  </g>
</svg>
