<svg width="84" height="47" viewBox="0 0 84 47" fill="none" xmlns="http://www.w3.org/2000/svg"><g id="Group 49699"><path id="Path 40372" d="M39.914 12.451V15.771H39.658C39.0084 15.7895 38.3619 15.6752 37.758 15.435C37.2738 15.2315 36.8267 14.949 36.435 14.599C36.0814 14.2806 35.7732 13.9152 35.519 13.513C35.275 13.1224 35.047 12.7604 34.835 12.427C34.6509 12.13 34.4404 11.8502 34.206 11.591C34.1142 11.4852 34.0007 11.4003 33.8732 11.3424C33.7456 11.2844 33.6071 11.2546 33.467 11.255C33.3824 11.2516 33.2981 11.2667 33.22 11.2994C33.1419 11.332 33.0719 11.3814 33.015 11.444C32.8999 11.573 32.8387 11.7412 32.844 11.914C32.8451 12.1044 32.9048 12.2898 33.015 12.445C33.129 12.6117 33.2623 12.7967 33.415 13C33.8013 13.4907 34.0125 14.0965 34.015 14.721C34.0334 15.3944 33.8296 16.0551 33.435 16.601C33.0304 17.1373 32.5084 17.5738 31.909 17.877C31.2326 18.222 30.5087 18.4647 29.761 18.597C28.9498 18.7485 28.1262 18.8242 27.301 18.823C26.2033 18.8564 25.1099 18.6719 24.084 18.28C23.2928 17.9654 22.5862 17.4698 22.021 16.833C21.5043 16.232 21.1285 15.523 20.921 14.758C20.7052 13.9665 20.5975 13.1494 20.601 12.329C20.601 11.6592 20.6541 10.9904 20.76 10.329C20.8607 9.68594 20.9942 9.04844 21.16 8.41902H23.801C23.6217 9.05369 23.4793 9.64769 23.374 10.201C23.2649 10.783 23.2113 11.3739 23.214 11.966C23.2101 12.4426 23.2737 12.9173 23.403 13.376C23.5272 13.8079 23.7632 14.1994 24.087 14.511C24.4757 14.8653 24.9417 15.1238 25.448 15.266C26.1707 15.4683 26.9197 15.561 27.67 15.541C28.2313 15.541 28.746 15.5267 29.214 15.498C29.6185 15.4785 30.0202 15.4212 30.414 15.327C30.6985 15.2658 30.9668 15.1448 31.201 14.972C31.2902 14.9043 31.3622 14.8165 31.411 14.7157C31.4598 14.6149 31.4842 14.504 31.482 14.392C31.4873 14.1184 31.4182 13.8484 31.282 13.611C31.1487 13.383 31 13.147 30.836 12.903C30.5088 12.4113 30.3348 11.8336 30.336 11.243C30.333 10.831 30.414 10.4227 30.574 10.043C30.7269 9.67699 30.9509 9.34491 31.233 9.06602C31.5229 8.78336 31.8649 8.55957 32.24 8.40702C32.6455 8.24284 33.0796 8.16092 33.517 8.16602C33.9273 8.15501 34.3363 8.21697 34.725 8.34902C35.031 8.45959 35.3143 8.62496 35.561 8.83702C35.7896 9.03657 35.9871 9.26913 36.147 9.52702C36.3057 9.78369 36.4603 10.044 36.611 10.308C36.7617 10.572 36.9203 10.8324 37.087 11.089C37.2578 11.3498 37.468 11.5826 37.71 11.779C37.9789 11.9935 38.2836 12.1587 38.61 12.267C39.0315 12.3999 39.4722 12.462 39.914 12.451V12.451ZM27.78 22.566H24.911V19.995H27.78V22.566ZM31.955 22.566H29.086V19.995H31.955V22.566ZM41.525 15.766H39.914C39.7751 15.7664 39.6394 15.7245 39.5249 15.646C39.4104 15.5674 39.3225 15.4558 39.273 15.326C39.1138 14.9415 39.0408 14.5268 39.059 14.111C39.0408 13.6953 39.1138 13.2805 39.273 12.896C39.3216 12.7652 39.409 12.6523 39.5236 12.5726C39.6382 12.4928 39.7744 12.4501 39.914 12.45H41.647C41.9446 12.4526 42.2421 12.4382 42.538 12.407C42.7513 12.3901 42.9572 12.3215 43.138 12.207C43.3015 12.0891 43.4199 11.9192 43.474 11.725C43.5518 11.4316 43.5855 11.1283 43.574 10.825V5.02502H46.174V9.98102C46.174 10.4044 46.1863 10.771 46.211 11.081C46.2237 11.3534 46.3056 11.6181 46.449 11.85C46.6002 12.0662 46.8196 12.2254 47.072 12.302C47.4584 12.4137 47.8601 12.463 48.262 12.448V15.771H47.701C47.0782 15.787 46.4589 15.6726 45.883 15.435C45.3944 15.2265 44.9992 14.8462 44.772 14.366H44.701C44.5055 14.637 44.2662 14.8736 43.993 15.066C43.7406 15.2407 43.468 15.3841 43.181 15.493C42.9065 15.5962 42.6214 15.669 42.331 15.71C42.0641 15.7494 41.7948 15.7698 41.525 15.771V15.766ZM46.325 2.56602H43.454V-0.00997925H46.322L46.325 2.56602ZM49.875 15.771H48.263C48.1235 15.771 47.9874 15.7284 47.8728 15.6489C47.7583 15.5694 47.6707 15.4567 47.622 15.326C47.4628 14.9415 47.3898 14.5268 47.408 14.111C47.3898 13.6953 47.4628 13.2805 47.622 12.896C47.6706 12.7652 47.758 12.6523 47.8726 12.5726C47.9872 12.4928 48.1234 12.4501 48.263 12.45H50.001C50.2986 12.4526 50.5961 12.4382 50.892 12.407C51.1053 12.3901 51.3112 12.3215 51.492 12.207C51.6555 12.0891 51.7739 11.9192 51.828 11.725C51.9058 11.4316 51.9395 11.1283 51.928 10.825V5.02502H54.528V9.98102C54.528 10.4044 54.5403 10.771 54.565 11.081C54.5777 11.3534 54.6596 11.6181 54.803 11.85C54.9542 12.0662 55.1736 12.2254 55.426 12.302C55.8124 12.4137 56.2141 12.463 56.616 12.448V15.771H56.051C55.4279 15.7872 54.8083 15.6727 54.232 15.435C53.7438 15.2263 53.3489 14.846 53.122 14.366H53.049C52.8535 14.637 52.6142 14.8736 52.341 15.066C52.0886 15.2407 51.816 15.3841 51.529 15.493C51.2552 15.5971 50.9709 15.6709 50.681 15.713C50.414 15.7514 50.1447 15.7707 49.875 15.771V15.771ZM54.428 19.995H51.559V17.419H54.428V19.995ZM58.228 15.771H56.613C56.4734 15.771 56.3372 15.7282 56.2226 15.6485C56.108 15.5688 56.0206 15.4559 55.972 15.325C55.8128 14.9405 55.7398 14.5258 55.758 14.11C55.7398 13.6943 55.8128 13.2795 55.972 12.895C56.0206 12.7642 56.108 12.6513 56.2226 12.5716C56.3372 12.4918 56.4734 12.4491 56.613 12.449H58.346C58.6713 12.449 58.956 12.4367 59.2 12.412C59.4133 12.3954 59.6193 12.3267 59.8 12.212C59.9676 12.0944 60.092 11.9251 60.154 11.73C60.2423 11.4354 60.2815 11.1283 60.27 10.821V5.02102H62.87V10.905C62.8972 11.7338 62.7665 12.5601 62.485 13.34C62.273 13.9134 61.9226 14.4256 61.465 14.831C61.0352 15.189 60.5272 15.4408 59.982 15.566C59.4061 15.7032 58.816 15.772 58.224 15.771H58.228ZM63.028 2.57102H60.153V-0.00497913H63.022L63.028 2.57102Z" fill="white"/><path id="clip" style="transform-origin: center; transform-box: fill-box; animation: sideClipLeft 5s linear infinite alternate;" d="M0 46.34C0 46.34 34.759 34.021 82.311 41.658C83.745 42.092 83.478 45.947 80.558 45.222C78.022 44.589 67.511 37.936 0 46.34Z" fill="white"/></g><style> @keyframes sideClipLeft { 0% { clip-path: polygon(0 0, 0 0, 0 100%, 0% 100%); } 40% { clip-path: polygon(0 0, 55% 0, 54% 100%, 0 100%);} 70%, 100% { clip-path: polygon(0 0, 100% 0, 100% 100%, 0 100%); } }</style></svg>