<svg id="Group_31874" data-name="Group 31874" xmlns="http://www.w3.org/2000/svg" width="24.393" height="24.384" viewBox="0 0 24.393 24.384">
  <path id="Path_20790" data-name="Path 20790" d="M226.919,326.028a10,10,0,0,1-9.946-10.481,10.149,10.149,0,0,1,8.557-9.422,10.01,10.01,0,0,1,11.316,8.346,9.8,9.8,0,0,1-2.022,7.775c-.128.163-.494.328-.223.6.248.245.389.693.886.591a1.456,1.456,0,0,1,1.386.505c1.313,1.322,2.638,2.632,3.949,3.955a1.406,1.406,0,1,1-1.959,2c-1.34-1.327-2.665-2.668-4-4a1.4,1.4,0,0,1-.47-1.331.578.578,0,0,0-.18-.53c-.343-.443-.614-.514-1.115-.112A9.593,9.593,0,0,1,226.919,326.028Zm.065-1.671a8.331,8.331,0,1,0-8.338-8.339A8.308,8.308,0,0,0,226.984,324.358Z" transform="translate(-216.969 -306.028)" fill="#fff"/>
  <path id="Path_20791" data-name="Path 20791" d="M247.03,328.127a13.874,13.874,0,0,0-7.623,7.635C238.87,332.908,242.047,328.036,247.03,328.127Z" transform="translate(-236.333 -325.149)" fill="#fff"/>
</svg>
