<svg xmlns="http://www.w3.org/2000/svg" width="19.996" height="18.761" viewBox="0 0 19.996 18.761">
  <path id="Path_19" data-name="Path 19" d="M11.869,21.761A4.481,4.481,0,0,1,9.177,20.7a3.879,3.879,0,0,0-1.533-.79,4.567,4.567,0,0,0-.8-.066,5.392,5.392,0,0,0-1.114.125,2.764,2.764,0,0,1-.424.058.3.3,0,0,1-.32-.228c-.05-.16-.081-.312-.112-.459-.08-.37-.147-.6-.286-.62-1.489-.227-2.38-.57-2.554-.976A.484.484,0,0,1,2,17.624a.238.238,0,0,1,.2-.25,5.272,5.272,0,0,0,3.137-1.858,6.6,6.6,0,0,0,1.066-1.663.009.009,0,0,1,.009-.01,1.08,1.08,0,0,0,.1-.895c-.191-.46-.825-.656-1.257-.79-.111-.03-.2-.066-.285-.093-.37-.147-.986-.46-.9-.892a.834.834,0,0,1,.811-.535.5.5,0,0,1,.24.05,2.524,2.524,0,0,0,1.017.262.82.82,0,0,0,.584-.182q-.014-.3-.035-.593a10.034,10.034,0,0,1,.24-4.029A5.252,5.252,0,0,1,11.8,3.008L12.154,3h.05a5.241,5.241,0,0,1,4.867,3.138,9.951,9.951,0,0,1,.24,4.029l-.008.067c-.01.182-.023.356-.032.535a.818.818,0,0,0,.535.173,2.54,2.54,0,0,0,.954-.263.8.8,0,0,1,.312-.066,1.143,1.143,0,0,1,.357.066h.009c.3.112.495.321.495.54s-.152.517-.914.825a2.224,2.224,0,0,1-.285.093c-.424.13-1.057.335-1.258.79a1.055,1.055,0,0,0,.1.895.009.009,0,0,0,.009.01c.049.124,1.337,3.048,4.2,3.525a.246.246,0,0,1,.2.25.267.267,0,0,1-.031.129c-.174.41-1.057.744-2.555.976-.138.022-.2.25-.285.62q-.048.231-.112.459a.285.285,0,0,1-.3.227h-.023a2.24,2.24,0,0,1-.423-.049,5.284,5.284,0,0,0-1.115-.116,4.969,4.969,0,0,0-.8.067,3.864,3.864,0,0,0-1.534.79,4.564,4.564,0,0,1-2.7,1.051h-.254Z" transform="translate(-2 -3)"/>
</svg>
