<svg xmlns="http://www.w3.org/2000/svg" width="16.398" height="13.293" viewBox="0 0 16.398 13.293">
  <g id="Group_12" data-name="Group 12" transform="translate(0 0)">
    <path id="Path_11" data-name="Path 11" d="M238.9,619.873Z" transform="translate(-223.059 -619.661)"/>
    <path id="Path_12" data-name="Path 12" d="M183.169,620.805a2.191,2.191,0,0,1-.636.083l.011-.068a5.213,5.213,0,0,0,1.277-1.459c.048-.165-.009-.221-.009-.227l-1.066.453-.893.4h0a3.56,3.56,0,0,0-2.592-1.068,3.17,3.17,0,0,0-3.36,2.937,4.371,4.371,0,0,0,.137,1.108c0,.085,0-.085,0,0a10.483,10.483,0,0,1-4.091-1.214c-2.691-1.363-2.859-2.307-2.859-2.307a3.671,3.671,0,0,0-.212,3.1,3.864,3.864,0,0,0,1.217,1.415h0a2.849,2.849,0,0,1-.863-.141,1.907,1.907,0,0,1-.608-.3c-.263.641.264,1.784,1.175,2.6a4.82,4.82,0,0,0,1.5.779l-1.514.043c-.085,1.472,3.087,2.346,3.087,2.346h0a5.187,5.187,0,0,1-3.164,1.15,6.022,6.022,0,0,1-1.728-.254,8.24,8.24,0,0,0,5.625,2.015c5.663-.3,8.861-5.166,9.012-9.947l.007.01a3.981,3.981,0,0,0,.833-.7,5.881,5.881,0,0,0,.92-1.231S183.525,620.707,183.169,620.805Z" transform="translate(-167.975 -618.923)"/>
    <path id="Path_13" data-name="Path 13" d="M238.9,619.874c0,.09,0,.009,0,0Z" transform="translate(-223.059 -619.662)"/>
  </g>
</svg>
