<svg xmlns="http://www.w3.org/2000/svg" width="20.213" height="22.776" viewBox="0 0 20.213 22.776">
  <g id="Group_37896" data-name="Group 37896" transform="translate(-46 -26)">
    <g id="Group_37902" data-name="Group 37902" transform="translate(46 26)">
      <path id="Path_39521" data-name="Path 39521" d="M-1390.442,590.871q0-4.783,0-9.565a2,2,0,0,1,1.567-2,2.4,2.4,0,0,1,.555-.06q7.982,0,15.963,0a2.033,2.033,0,0,1,2.093,1.653,2.188,2.188,0,0,1,.031.428q0,9.575,0,19.151a1.41,1.41,0,0,1-.836,1.387,1.429,1.429,0,0,1-1.641-.248q-3.72-3.174-7.437-6.35c-.151-.129-.234-.133-.386,0q-3.7,3.168-7.4,6.325a1.48,1.48,0,0,1-1.516.342,1.427,1.427,0,0,1-.993-1.431Q-1390.443,595.686-1390.442,590.871Zm1.17.014q0,4.706,0,9.412a1.687,1.687,0,0,0,.01.279.287.287,0,0,0,.456.2,1.242,1.242,0,0,0,.134-.108l7.831-6.682a.634.634,0,0,1,1,0q3.923,3.348,7.846,6.7c.125.107.25.2.423.122s.168-.234.168-.389q0-1.1,0-2.2,0-8.4,0-16.8a.868.868,0,0,0-.931-.989q-8.012,0-16.024,0a1.086,1.086,0,0,0-.276.03.87.87,0,0,0-.64.95Q-1389.273,586.147-1389.272,590.885Z" transform="translate(1390.442 -579.245)" fill="#fff"/>
    </g>
  </g>
</svg>
