<svg width="251" height="238" viewBox="0 0 251 238" fill="none" xmlns="http://www.w3.org/2000/svg"><g id="Group 49476 1" clip-path="url(#clip0_404_2)"><g id="Group 49476"><g id="Group 47245" opacity="0.056"><path id="Path 39877" d="M129.935 2.03965C153.046 1.64738 175.754 8.11714 195.188 20.6308C214.622 33.1444 229.909 51.1399 239.116 72.3416C248.323 93.5432 251.035 116.999 246.911 139.742C242.787 162.486 232.012 183.496 215.947 200.115C199.883 216.734 179.251 228.217 156.66 233.11C134.07 238.004 110.536 236.088 89.0337 227.607C67.5318 219.125 49.0279 204.457 35.8619 185.459C22.696 166.461 15.4593 143.985 15.067 120.874C14.541 89.8834 26.3476 59.9529 47.8896 37.667C69.4315 15.3812 98.9442 2.56566 129.935 2.03965V2.03965Z" fill="#084199"/></g><g id="Group 47310" opacity="0.964"><g id="Group 47309"><path id="Rectangle 16187" d="M236.448 21.4421L236.447 21.4414C235.855 20.8486 234.893 20.8486 234.301 21.4414L203.524 52.2175C202.932 52.8103 202.932 53.7714 203.524 54.3643L203.525 54.365C204.118 54.9578 205.079 54.9578 205.672 54.365L236.448 23.5889C237.041 22.996 237.041 22.0349 236.448 21.4421Z" fill="#084199"/><path id="Rectangle 16188" d="M208.107 21.4421L208.106 21.4414C207.514 20.8486 206.552 20.8486 205.96 21.4414L175.183 52.2175C174.591 52.8103 174.591 53.7714 175.183 54.3643L175.184 54.365C175.777 54.9578 176.738 54.9578 177.331 54.365L208.107 23.5889C208.7 22.996 208.7 22.0349 208.107 21.4421Z" fill="#084199"/></g></g><g id="Group 47311" opacity="0.964"><path id="Rectangle 16189" d="M40.071 181.103L40.0703 181.102C39.4775 180.51 38.5164 180.51 37.9236 181.102L7.14745 211.878C6.55463 212.471 6.55463 213.432 7.14744 214.025L7.14815 214.026C7.74097 214.619 8.70211 214.619 9.29493 214.026L40.071 183.25C40.6639 182.657 40.6639 181.696 40.071 181.103Z" fill="#084199"/><path id="Rectangle 16190" d="M33.998 155.798L33.9973 155.797C33.4045 155.205 32.4434 155.205 31.8506 155.797L1.07445 186.574C0.481632 187.166 0.48163 188.127 1.07445 188.72L1.07515 188.721C1.66797 189.314 2.62912 189.314 3.22193 188.721L33.998 157.945C34.5909 157.352 34.5909 156.391 33.998 155.798Z" fill="#084199"/></g><g id="Group 47318"><g id="Group 47305"><path id="Path 27706" d="M134.26 80.613C140.106 80.613 145.952 80.613 151.8 80.613C154.067 80.613 154.86 81.356 155.069 83.632C155.171 85.0345 155.379 86.4271 155.693 87.7979C157.493 95.0369 162.535 99.519 169.982 100.154C174.429 100.532 174.619 101.472 174.497 105.29C174.277 113.694 172.788 122.016 170.078 129.974C169.914 130.37 169.852 130.801 169.898 131.227C169.945 131.653 170.097 132.061 170.342 132.413C174.326 138.885 178.284 145.374 182.214 151.881C183.881 154.624 183.402 156.714 180.709 158.492C176.897 161.009 173.147 163.635 169.245 166.008C167.535 167.158 165.529 167.791 163.469 167.83C161.409 167.87 159.381 167.314 157.628 166.23C155.533 164.927 153.651 163.31 152.047 161.436C151.87 161.236 151.707 161.036 151.522 160.844C150.128 159.427 149.339 159.344 147.732 160.427C144.076 162.87 140.168 164.912 136.074 166.516C135.507 166.751 134.899 166.869 134.286 166.865C133.672 166.86 133.066 166.732 132.503 166.489C115.827 159.924 104.949 147.83 98.875 131.189C95.8016 122.653 94.1845 113.661 94.0918 104.589C94.0448 101.845 94.7569 101.039 97.4649 100.807C99.7498 100.664 101.993 100.127 104.094 99.218C109.529 96.734 112.094 92.202 113.053 86.556C113.203 85.5571 113.301 84.551 113.347 83.5419C113.476 81.5299 114.407 80.621 116.456 80.618C122.39 80.6073 128.325 80.6056 134.26 80.613ZM168.077 128.126C168.203 127.756 168.348 127.358 168.477 126.952C170.706 119.628 171.91 112.03 172.056 104.376C172.081 103.223 171.856 102.821 170.6 102.719C164.264 102.205 158.976 99.754 155.591 94.077C153.866 91.1458 152.872 87.843 152.691 84.447C152.615 83.272 152.25 83.0119 151.13 83.0159C140.142 83.0569 129.152 83.0409 118.163 83.0409C115.895 83.0409 115.895 83.041 115.701 85.311C114.801 95.784 108.212 102.384 97.731 103.258C96.849 103.332 96.5548 103.549 96.5698 104.493C96.6548 114.275 98.5871 123.954 102.265 133.019C108.265 147.619 118.359 158.198 133.165 164.061C133.404 164.215 133.672 164.319 133.952 164.366C134.233 164.413 134.52 164.402 134.796 164.334C139.054 162.733 143.094 160.605 146.824 158.001C144.674 156.771 142.668 155.616 140.654 154.472C139.39 153.837 138.323 152.869 137.569 151.672C137.177 151.029 136.97 150.29 136.97 149.536C136.97 148.783 137.177 148.044 137.569 147.401C137.915 146.784 138.431 146.278 139.055 145.944C139.679 145.61 140.386 145.462 141.092 145.517C142.647 145.666 144.174 146.025 145.633 146.585C144.012 143.925 142.525 141.49 141.039 139.055C140.806 139.706 140.704 140.397 140.739 141.088C140.779 141.485 140.732 141.887 140.601 142.264C140.47 142.641 140.258 142.985 139.98 143.272C139.702 143.559 139.364 143.781 138.991 143.924C138.618 144.066 138.218 144.125 137.82 144.097C135.447 144.145 133.072 144.151 130.699 144.091C130.322 144.112 129.944 144.053 129.592 143.917C129.239 143.782 128.919 143.574 128.653 143.306C128.386 143.039 128.179 142.718 128.045 142.365C127.911 142.011 127.854 141.634 127.876 141.257C127.835 138.84 127.835 136.422 127.876 134.004C127.856 133.638 127.912 133.273 128.041 132.93C128.17 132.587 128.369 132.275 128.625 132.013C128.881 131.751 129.188 131.546 129.528 131.409C129.868 131.272 130.232 131.207 130.598 131.219C131.824 131.155 133.059 131.219 134.289 131.184C134.838 131.168 135.689 131.453 135.855 130.976C136.006 130.556 135.455 129.898 135.248 129.335C135.061 128.835 134.648 128.902 134.259 128.9C133.028 128.895 131.797 128.927 130.567 128.887C130.201 128.909 129.835 128.855 129.492 128.728C129.149 128.6 128.836 128.403 128.573 128.148C128.31 127.893 128.104 127.586 127.966 127.247C127.828 126.908 127.763 126.544 127.774 126.178C127.719 123.674 127.719 121.169 127.774 118.663C127.765 118.308 127.828 117.955 127.961 117.626C128.094 117.297 128.294 116.999 128.547 116.75C128.8 116.501 129.102 116.307 129.434 116.18C129.765 116.053 130.119 115.996 130.474 116.012C132.933 115.963 135.395 115.963 137.858 116.012C138.223 116 138.587 116.062 138.927 116.197C139.267 116.331 139.576 116.535 139.834 116.794C140.092 117.053 140.294 117.362 140.427 117.703C140.56 118.043 140.621 118.408 140.607 118.773C140.678 119.65 140.674 120.531 140.597 121.407C140.435 122.716 141.123 123.288 142.315 123.737C142.315 122.083 142.296 120.551 142.315 119.021C142.268 118.612 142.314 118.197 142.45 117.809C142.586 117.42 142.808 117.067 143.1 116.777C143.392 116.486 143.746 116.265 144.135 116.131C144.524 115.997 144.939 115.953 145.348 116.002C147.591 115.979 149.832 115.984 152.074 116.002C154.115 116.018 155.185 117.052 155.214 119.073C155.245 121.314 155.245 123.556 155.214 125.799C155.262 126.219 155.215 126.645 155.075 127.044C154.935 127.443 154.707 127.806 154.407 128.104C154.107 128.402 153.744 128.629 153.344 128.767C152.944 128.904 152.518 128.949 152.098 128.899C150.252 128.92 148.406 128.92 146.559 128.899C145.801 128.888 145.577 129.075 146.033 129.778C146.633 130.699 147.218 131.629 147.751 132.588C148.085 133.188 148.351 133.16 148.824 132.726C149.425 132.109 150.16 131.638 150.971 131.349C151.782 131.059 152.649 130.959 153.505 131.056C154.066 131.13 154.272 130.75 154.565 130.435C155.117 129.774 155.81 129.245 156.593 128.886C157.376 128.528 158.23 128.349 159.091 128.363C159.427 128.388 159.764 128.323 160.067 128.176C160.37 128.029 160.629 127.804 160.818 127.525C162.794 125.178 165.491 125.257 167.439 127.643C167.592 127.822 167.64 128.152 168.077 128.126ZM163.304 165.258C164.76 165.273 166.195 164.916 167.475 164.222C171.559 161.559 175.63 158.876 179.688 156.174C179.936 156.068 180.155 155.904 180.326 155.696C180.498 155.488 180.617 155.242 180.674 154.979C180.732 154.715 180.725 154.442 180.655 154.182C180.585 153.921 180.454 153.681 180.273 153.482C175.42 145.482 170.556 137.491 165.681 129.51C165.154 128.647 164.524 127.881 163.341 128.578C163.091 128.7 162.872 128.875 162.699 129.093C162.526 129.31 162.404 129.563 162.342 129.834C162.279 130.105 162.278 130.386 162.338 130.657C162.399 130.928 162.519 131.182 162.69 131.401C163.081 132.087 163.557 132.723 163.971 133.395C164.077 133.524 164.154 133.673 164.199 133.834C164.244 133.995 164.255 134.163 164.231 134.328C164.207 134.493 164.149 134.651 164.061 134.792C163.973 134.934 163.856 135.055 163.718 135.149C163.588 135.253 163.438 135.329 163.277 135.372C163.116 135.414 162.947 135.422 162.783 135.395C162.619 135.368 162.461 135.307 162.322 135.216C162.183 135.124 162.065 135.004 161.975 134.864C161.298 134.056 160.716 133.173 160.239 132.233C159.261 130.497 158.539 130.375 156.948 131.586C156.005 132.304 155.641 133.067 156.54 134.112C156.958 134.677 157.344 135.265 157.696 135.874C158.189 136.602 158.452 137.382 157.596 137.945C156.676 138.545 156.06 137.957 155.564 137.169C154.908 136.129 154.187 135.13 153.55 134.079C153.491 133.95 153.406 133.834 153.301 133.739C153.195 133.643 153.071 133.57 152.937 133.524C152.803 133.478 152.66 133.46 152.519 133.471C152.377 133.482 152.239 133.521 152.113 133.587C151.54 133.809 151.005 134.121 150.53 134.511C150.344 134.603 150.183 134.739 150.062 134.907C149.94 135.075 149.86 135.27 149.83 135.475C149.8 135.68 149.82 135.889 149.889 136.085C149.957 136.281 150.072 136.457 150.224 136.599C150.906 137.569 151.534 138.575 152.106 139.614C152.266 139.858 152.324 140.156 152.268 140.442C152.212 140.729 152.046 140.983 151.806 141.149C151.592 141.346 151.309 141.452 151.018 141.445C150.727 141.437 150.45 141.317 150.246 141.11C149.996 140.864 149.785 140.582 149.618 140.273C146.924 135.898 144.231 131.521 141.539 127.144C141.193 126.585 140.787 126.066 140.327 125.596C140.096 125.295 139.763 125.089 139.39 125.017C139.018 124.945 138.632 125.011 138.305 125.204C137.945 125.376 137.649 125.657 137.46 126.009C137.271 126.36 137.198 126.762 137.253 127.157C137.391 128.116 137.755 129.03 138.313 129.822C142.595 136.728 146.692 143.748 151.164 150.534C151.633 151.247 151.964 152.025 151.119 152.626C150.21 153.277 149.702 152.586 149.063 151.936C146.942 149.742 144.125 148.352 141.094 148.002C140.805 147.967 140.512 148.017 140.251 148.145C139.99 148.274 139.772 148.476 139.624 148.726C139.475 148.977 139.403 149.265 139.415 149.556C139.428 149.846 139.524 150.127 139.694 150.364C140.243 151.22 141.021 151.906 141.94 152.343C145.106 154.151 148.264 155.971 151.44 157.757C152.363 158.261 153.189 158.924 153.881 159.716C155.331 161.429 157.032 162.913 158.927 164.116C160.224 164.962 161.76 165.363 163.305 165.258H163.304ZM152.697 122.503C152.697 121.493 152.669 120.483 152.707 119.475C152.734 118.775 152.523 118.423 151.752 118.435C149.733 118.466 147.714 118.466 145.695 118.435C144.916 118.424 144.732 118.797 144.739 119.49C144.764 121.465 144.764 123.441 144.739 125.416C144.729 126.124 144.949 126.467 145.712 126.456C147.731 126.427 149.751 126.434 151.77 126.456C152.429 126.462 152.732 126.23 152.707 125.535C152.67 124.523 152.697 123.513 152.698 122.502L152.697 122.503ZM134.155 141.62C135.208 141.62 136.261 141.596 137.313 141.629C137.956 141.648 138.299 141.466 138.291 140.755C138.268 138.825 138.308 136.894 138.267 134.964C138.251 134.274 138.011 133.664 137.118 133.664C135.145 133.675 133.169 133.681 131.197 133.664C130.569 133.657 130.337 133.916 130.341 134.522C130.355 136.584 130.36 138.646 130.336 140.708C130.329 141.381 130.578 141.655 131.261 141.629C132.223 141.591 133.189 141.618 134.155 141.62ZM130.189 122.12V122.983C130.189 126.63 130.189 126.612 133.829 126.464C134.457 126.439 134.788 126.264 134.929 125.637C135.011 125.133 135.216 124.657 135.526 124.252C135.836 123.847 136.242 123.525 136.707 123.314C138.163 122.782 138.26 121.778 138.146 120.542C138.112 120.149 138.112 119.753 138.146 119.36C138.2 118.671 137.883 118.423 137.221 118.438C136.17 118.462 135.121 118.401 134.068 118.452C132.815 118.515 131.208 117.893 130.407 118.752C129.679 119.54 130.275 121.107 130.189 122.12Z" fill="#084199"/><path id="scale_2" style=" transform-origin: center; transform-box: fill-box; animation: pulsecust 2s linear infinite;" d="M140.741 107.25C140.741 108.434 140.76 109.619 140.741 110.803C140.777 111.167 140.736 111.534 140.62 111.881C140.505 112.228 140.317 112.547 140.07 112.816C139.823 113.086 139.521 113.3 139.186 113.446C138.85 113.591 138.488 113.664 138.122 113.659C135.581 113.742 133.038 113.742 130.494 113.659C130.139 113.665 129.787 113.597 129.459 113.459C129.131 113.322 128.836 113.119 128.591 112.862C128.345 112.605 128.156 112.301 128.034 111.967C127.912 111.634 127.86 111.278 127.882 110.924C127.838 108.469 127.838 106.014 127.882 103.557C127.867 103.191 127.927 102.827 128.06 102.486C128.193 102.145 128.395 101.835 128.654 101.576C128.912 101.317 129.222 101.115 129.563 100.982C129.904 100.849 130.268 100.788 130.634 100.803C133.088 100.74 135.544 100.74 138.001 100.803C138.377 100.792 138.751 100.861 139.099 101.005C139.447 101.149 139.76 101.364 140.019 101.637C140.277 101.911 140.475 102.236 140.6 102.591C140.724 102.946 140.772 103.323 140.741 103.698C140.755 104.879 140.741 106.066 140.741 107.25ZM134.015 111.231C135.237 111.231 136.246 111.188 137.253 111.244C138.085 111.291 138.314 110.932 138.301 110.164C138.269 108.191 138.269 106.217 138.301 104.244C138.311 103.506 138.035 103.244 137.296 103.258C135.323 103.295 133.349 103.303 131.376 103.258C130.551 103.238 130.302 103.558 130.335 104.335C130.379 105.341 130.317 106.353 130.351 107.36C130.392 108.582 129.837 110.144 130.569 110.936C131.37 111.808 132.977 111.072 134.011 111.231H134.015Z" fill="#084199"/><path id="scale_1" style=" transform-origin: center; transform-box: fill-box; animation: pulsecust 2s linear infinite;" d="M126.284 107.214C126.284 108.442 126.317 109.671 126.278 110.898C126.303 111.263 126.251 111.629 126.125 111.972C125.998 112.315 125.801 112.628 125.546 112.89C125.291 113.152 124.983 113.357 124.643 113.492C124.303 113.627 123.938 113.689 123.573 113.673C121.076 113.744 118.576 113.742 116.073 113.667C115.718 113.676 115.365 113.612 115.035 113.479C114.705 113.346 114.407 113.147 114.157 112.894C113.908 112.641 113.712 112.339 113.584 112.008C113.455 111.676 113.396 111.322 113.41 110.967C113.338 108.467 113.334 105.967 113.41 103.467C113.406 103.111 113.474 102.759 113.611 102.43C113.747 102.102 113.948 101.804 114.203 101.556C114.457 101.307 114.759 101.113 115.091 100.984C115.423 100.856 115.777 100.796 116.132 100.808C118.632 100.743 121.132 100.737 123.632 100.814C123.987 100.81 124.338 100.878 124.665 101.014C124.992 101.151 125.288 101.352 125.535 101.606C125.782 101.861 125.975 102.162 126.101 102.493C126.228 102.824 126.285 103.178 126.271 103.532C126.321 104.758 126.283 105.986 126.284 107.214ZM119.901 103.272C118.891 103.272 117.88 103.291 116.872 103.265C116.249 103.249 115.884 103.385 115.895 104.125C115.927 106.233 115.915 108.34 115.902 110.448C115.902 111.001 116.124 111.238 116.684 111.234C118.792 111.221 120.899 111.218 123.008 111.234C123.631 111.24 123.866 110.978 123.862 110.37C123.847 108.307 123.84 106.242 123.862 104.179C123.871 103.491 123.597 103.241 122.926 103.262C121.92 103.296 120.911 103.27 119.901 103.27V103.272Z" fill="#084199"/><path id="scale_3" style=" transform-origin: center; transform-box: fill-box; animation: pulsecust 2s linear infinite;" d="M155.289 107.344C155.289 108.572 155.322 109.801 155.279 111.027C155.297 111.359 155.248 111.692 155.135 112.004C155.022 112.317 154.846 112.604 154.619 112.847C154.392 113.091 154.119 113.286 153.815 113.421C153.511 113.556 153.183 113.629 152.85 113.634C150.224 113.734 147.59 113.734 144.964 113.646C144.62 113.643 144.279 113.57 143.964 113.432C143.649 113.294 143.364 113.093 143.128 112.843C142.892 112.592 142.709 112.296 142.59 111.973C142.471 111.65 142.419 111.306 142.436 110.962C142.379 108.508 142.379 106.053 142.436 103.597C142.417 103.231 142.474 102.866 142.604 102.523C142.733 102.18 142.932 101.868 143.188 101.606C143.444 101.344 143.751 101.138 144.09 101C144.43 100.862 144.794 100.796 145.16 100.806C147.613 100.737 150.07 100.742 152.525 100.801C152.901 100.784 153.276 100.847 153.625 100.987C153.975 101.126 154.29 101.338 154.552 101.608C154.813 101.879 155.014 102.202 155.141 102.556C155.268 102.91 155.318 103.287 155.288 103.662C155.311 104.888 155.291 106.117 155.289 107.344ZM152.862 107.285C152.862 106.231 152.847 105.177 152.869 104.123C152.882 103.509 152.635 103.26 152.013 103.265C149.905 103.285 147.796 103.282 145.689 103.265C145.126 103.265 144.903 103.498 144.907 104.051C144.918 106.159 144.922 108.268 144.907 110.376C144.902 110.989 145.134 111.242 145.758 111.235C147.821 111.216 149.886 111.212 151.95 111.235C152.63 111.244 152.9 110.993 152.875 110.31C152.837 109.306 152.862 108.295 152.862 107.285V107.285Z" fill="#084199"/><path id="scale_4" style=" transform-origin: center; transform-box: fill-box; animation: pulsecust 2s linear infinite;" d="M126.287 137.707C126.287 138.894 126.317 140.082 126.279 141.267C126.304 141.633 126.252 142 126.128 142.344C126.003 142.689 125.807 143.004 125.554 143.269C125.301 143.534 124.995 143.743 124.656 143.883C124.318 144.023 123.953 144.091 123.587 144.083C121.083 144.16 118.579 144.16 116.073 144.083C115.716 144.087 115.363 144.019 115.033 143.883C114.704 143.746 114.406 143.544 114.157 143.289C113.908 143.033 113.713 142.73 113.585 142.397C113.457 142.065 113.397 141.709 113.411 141.353C113.344 138.894 113.339 136.43 113.411 133.97C113.396 133.603 113.458 133.237 113.593 132.895C113.728 132.553 113.933 132.243 114.195 131.985C114.456 131.726 114.769 131.526 115.112 131.395C115.456 131.264 115.823 131.207 116.19 131.226C118.65 131.168 121.114 131.165 123.574 131.233C123.94 131.218 124.305 131.28 124.645 131.416C124.985 131.552 125.293 131.758 125.548 132.021C125.803 132.284 125.999 132.598 126.124 132.943C126.249 133.287 126.3 133.654 126.274 134.019C126.317 135.242 126.285 136.473 126.287 137.707ZM115.907 137.612C115.907 138.665 115.927 139.719 115.899 140.771C115.886 141.382 116.119 141.636 116.744 141.629C118.85 141.608 120.956 141.614 123.062 141.629C123.611 141.629 123.862 141.406 123.862 140.849C123.854 138.744 123.849 136.637 123.862 134.531C123.862 133.918 123.621 133.666 123.006 133.672C120.943 133.689 118.88 133.695 116.819 133.672C116.14 133.663 115.874 133.913 115.898 134.594C115.932 135.59 115.911 136.599 115.911 137.607L115.907 137.612Z" fill="#084199"/><path id="scale_6" style=" transform-origin: center; transform-box: fill-box; animation: pulsecust 2s linear infinite;" d="M113.313 122.398C113.313 121.171 113.284 119.942 113.322 118.716C113.31 118.362 113.37 118.01 113.499 117.681C113.627 117.351 113.821 117.051 114.069 116.798C114.317 116.546 114.613 116.346 114.94 116.212C115.267 116.077 115.618 116.011 115.972 116.016C118.469 115.961 120.969 115.961 123.472 116.016C123.838 116.007 124.201 116.075 124.539 116.214C124.877 116.353 125.182 116.561 125.436 116.824C125.69 117.087 125.886 117.4 126.013 117.743C126.14 118.086 126.194 118.451 126.172 118.816C126.217 121.227 126.217 123.639 126.172 126.05C126.195 126.426 126.139 126.802 126.007 127.155C125.874 127.508 125.669 127.828 125.404 128.096C125.139 128.364 124.821 128.572 124.47 128.709C124.119 128.845 123.743 128.905 123.367 128.886C120.956 128.932 118.544 128.932 116.133 128.886C115.747 128.908 115.36 128.847 115 128.705C114.639 128.564 114.314 128.346 114.047 128.066C113.779 127.787 113.575 127.453 113.449 127.087C113.323 126.721 113.278 126.332 113.317 125.947C113.297 124.761 113.312 123.577 113.313 122.398ZM123.694 122.498C123.694 121.489 123.666 120.478 123.703 119.47C123.73 118.757 123.492 118.428 122.733 118.438C120.715 118.466 118.696 118.461 116.678 118.438C116.011 118.432 115.731 118.685 115.739 119.367C115.762 121.43 115.762 123.492 115.739 125.554C115.732 126.264 116.073 126.454 116.71 126.454C118.728 126.437 120.747 126.437 122.766 126.454C123.426 126.459 123.726 126.213 123.702 125.524C123.669 124.515 123.689 123.505 123.694 122.498V122.498Z" fill="#084199"/></g><g id="Group 47317"><path id="Path 27729" d="M127.586 96.035C127.465 96.0406 127.351 96.0926 127.267 96.1802C127.183 96.2678 127.137 96.3843 127.137 96.5055C127.137 96.6267 127.183 96.7432 127.267 96.8308C127.351 96.9184 127.465 96.9704 127.586 96.976C127.707 96.9704 127.821 96.9184 127.905 96.8308C127.989 96.7432 128.035 96.6267 128.035 96.5055C128.035 96.3843 127.989 96.2678 127.905 96.1802C127.821 96.0926 127.707 96.0406 127.586 96.035V96.035Z" fill="#084199"/><g id="Group 47317_2"><path id="Path 27717" d="M184.927 172.891L182.027 173.427L181.379 176.485L180.73 173.427L177.83 172.889L180.719 172.183L181.38 169.294L182.041 172.183L184.927 172.891Z" fill="#084199"/><path id="Path 27718" d="M98.986 149.634L96.0859 150.17L95.438 153.228L94.7899 150.17L91.89 149.632L94.779 148.926L95.4399 146.037L96.101 148.926L98.986 149.634Z" fill="#084199"/><path id="rotate_1" style=" transform-origin: center; transform-box: fill-box; animation: spinner 2s linear infinite;" d="M112.223 69.006L109.323 69.542L108.675 72.6L108.027 69.542L105.127 69.004L108.017 68.306L108.678 65.417L109.339 68.306L112.223 69.006Z" fill="#084199"/><path id="rotate_2" style=" transform-origin: center; transform-box: fill-box; animation: spinnerR 2s linear infinite;" d="M188.557 148.55L186.935 148.85L186.573 150.559L186.215 148.85L184.593 148.55L186.208 148.156L186.577 146.541L186.946 148.156L188.557 148.55Z" fill="#084199"/><path id="rotate_3" style=" transform-origin: center; transform-box: fill-box; animation: spinner 2s linear infinite;" d="M190.95 125.105L189.328 125.405L188.966 127.114L188.604 125.405L186.983 125.105L188.597 124.71L188.966 123.095L189.335 124.71L190.95 125.105Z" fill="#084199"/><path id="rotate_4" style=" transform-origin: center; transform-box: fill-box; animation: spinnerR 2s linear infinite;" d="M177.185 65.414L175.563 65.714L175.201 67.423L174.839 65.714L173.217 65.414L174.834 65.022L175.203 63.407L175.57 65.022L177.185 65.414Z" fill="#084199"/><path id="rotate_5" style=" transform-origin: center; transform-box: fill-box; animation: spinner 2s linear infinite;" d="M135.766 189.245L134.144 189.545L133.782 191.254L133.42 189.545L131.798 189.245L133.413 188.851L133.782 187.236L134.151 188.851L135.766 189.245Z" fill="#084199"/><path id="rotate_5_2" style=" transform-origin: center; transform-box: fill-box; animation: spinnerR 2s linear infinite;" d="M89.972 153.616L88.35 153.916L87.988 155.625L87.626 153.916L86.004 153.616L87.619 153.221L87.988 151.606L88.357 153.221L89.972 153.616Z" fill="#084199"/><path id="rotate_6" style=" transform-origin: center; transform-box: fill-box; animation: spinner 2s linear infinite;" d="M92.495 106.227L90.873 106.527L90.511 108.236L90.149 106.527L88.527 106.227L90.142 105.832L90.511 104.217L90.88 105.832L92.495 106.227Z" fill="#084199"/><path id="Path 27726" d="M160.516 172.099C160.391 172.099 160.272 172.149 160.184 172.237C160.095 172.325 160.046 172.444 160.046 172.569C160.046 172.694 160.095 172.813 160.184 172.901C160.272 172.989 160.391 173.039 160.516 173.039C160.641 173.039 160.76 172.989 160.848 172.901C160.936 172.813 160.986 172.694 160.986 172.569C160.986 172.444 160.936 172.325 160.848 172.237C160.76 172.149 160.641 172.099 160.516 172.099V172.099Z" fill="#084199"/><path id="Path 27727" d="M85.77 81.603C85.649 81.6086 85.5347 81.6606 85.451 81.7482C85.3674 81.8358 85.3207 81.9523 85.3207 82.0735C85.3207 82.1947 85.3674 82.3112 85.451 82.3988C85.5347 82.4864 85.649 82.5384 85.77 82.544C85.891 82.5384 86.0052 82.4864 86.0889 82.3988C86.1726 82.3112 86.2193 82.1947 86.2193 82.0735C86.2193 81.9523 86.1726 81.8358 86.0889 81.7482C86.0052 81.6606 85.891 81.6086 85.77 81.603V81.603Z" fill="#084199"/><path id="Path 27728" d="M175.201 169.455C175.076 169.455 174.957 169.505 174.869 169.593C174.78 169.681 174.731 169.8 174.731 169.925C174.731 170.05 174.78 170.169 174.869 170.257C174.957 170.345 175.076 170.395 175.201 170.395C175.326 170.395 175.445 170.345 175.533 170.257C175.621 170.169 175.671 170.05 175.671 169.925C175.671 169.8 175.621 169.681 175.533 169.593C175.445 169.505 175.326 169.455 175.201 169.455V169.455Z" fill="#084199"/><path id="Path 27730" d="M84.071 114.969C83.9463 114.969 83.8268 115.019 83.7386 115.107C83.6505 115.195 83.601 115.314 83.601 115.439C83.601 115.564 83.6505 115.683 83.7386 115.771C83.8268 115.859 83.9463 115.909 84.071 115.909C84.1956 115.909 84.3151 115.859 84.4033 115.771C84.4914 115.683 84.541 115.564 84.541 115.439C84.541 115.314 84.4914 115.195 84.4033 115.107C84.3151 115.019 84.1956 114.969 84.071 114.969V114.969Z" fill="#084199"/><path id="Path 27731" d="M73.108 109.843C73.0229 109.848 72.9429 109.885 72.8844 109.947C72.8258 110.008 72.7932 110.09 72.7932 110.175C72.7932 110.261 72.8258 110.343 72.8844 110.404C72.9429 110.466 73.0229 110.503 73.108 110.508C73.193 110.503 73.273 110.466 73.3316 110.404C73.3901 110.343 73.4227 110.261 73.4227 110.175C73.4227 110.09 73.3901 110.008 73.3316 109.947C73.273 109.885 73.193 109.848 73.108 109.843Z" fill="#084199"/><path id="Path 27732" d="M162.809 59.276C162.721 59.276 162.636 59.3111 162.573 59.3735C162.511 59.436 162.476 59.5207 162.476 59.609C162.476 59.6973 162.511 59.782 162.573 59.8445C162.636 59.9069 162.721 59.942 162.809 59.942C162.897 59.942 162.982 59.9069 163.044 59.8445C163.107 59.782 163.142 59.6973 163.142 59.609C163.142 59.5207 163.107 59.436 163.044 59.3735C162.982 59.3111 162.897 59.276 162.809 59.276Z" fill="#084199"/><path id="Path 27733" d="M116.392 173.119C116.307 173.124 116.227 173.161 116.168 173.223C116.11 173.284 116.077 173.366 116.077 173.452C116.077 173.537 116.11 173.619 116.168 173.68C116.227 173.742 116.307 173.779 116.392 173.784C116.477 173.779 116.557 173.742 116.616 173.68C116.674 173.619 116.707 173.537 116.707 173.452C116.707 173.366 116.674 173.284 116.616 173.223C116.557 173.161 116.477 173.124 116.392 173.119Z" fill="#084199"/><path id="Path 27734" d="M105.998 167.006C105.759 167.006 105.53 167.101 105.362 167.27C105.193 167.438 105.098 167.667 105.098 167.906C105.098 168.145 105.193 168.374 105.362 168.542C105.53 168.711 105.759 168.806 105.998 168.806C106.237 168.806 106.466 168.711 106.634 168.542C106.803 168.374 106.898 168.145 106.898 167.906C106.898 167.667 106.803 167.438 106.634 167.27C106.466 167.101 106.237 167.006 105.998 167.006V167.006Z" fill="#084199"/></g></g></g></g></g><defs><clipPath id="clip0_404_2"><rect width="250.696" height="237.782" fill="white"/></clipPath></defs><style> @keyframes spinner { 0% { transform: rotate(0deg); } 100% { transform: rotate(360deg); } } @keyframes spinnerR { 0% { transform: rotate(0deg); } 100% { transform: rotate(-360deg); } } @keyframes pulsecust { 0% { opacity: 1; transform: scale(1); } 50% { opacity: .5; transform: scale(1.4); } 100% { opacity: 1; transform: scale(1); } }</style></svg>