<svg id="Group_49470" data-name="Group 49470" xmlns="http://www.w3.org/2000/svg" width="21.268" height="27.443" viewBox="0 0 21.268 27.443">
  <path id="Path_21375" data-name="Path 21375" d="M272.9,359.921c2.5,0,5,.01,7.5,0,2.19-.012,3.1-.949,3.105-3.156q0-4.8,0-9.607c0-1.682-.528-2.442-2.128-2.867-.608-.161-.676-.474-.692-.991a29.554,29.554,0,0,0-.182-4.55,7.741,7.741,0,0,0-7.924-6.255,7.891,7.891,0,0,0-7.5,7.449c-.047,1.092-.04,2.187-.03,3.279.006.66-.118,1.067-.928,1.174a2.048,2.048,0,0,0-1.857,2.183c-.032,3.67-.042,7.342,0,11.012.017,1.488,1.045,2.31,2.784,2.325C267.667,359.939,270.283,359.922,272.9,359.921Zm.01-1.493c-2.5,0-5-.043-7.5.02-1.119.028-1.554-.384-1.543-1.486q.045-4.743,0-9.487c-.009-1.1.472-1.554,1.549-1.551q7.555.022,15.109,0c1.017,0,1.4.453,1.393,1.419q-.023,4.86,0,9.721c0,.967-.369,1.405-1.4,1.385C277.986,358.395,275.447,358.428,272.91,358.428Zm.021-14.241c-1.675,0-3.352-.039-5.025.017-.841.028-1.086-.286-1.04-1.082.056-.971,0-1.947.015-2.921a6,6,0,0,1,11.831-1.437c.4,1.5.1,3.024.217,4.531.057.757-.307.914-.972.9C276.282,344.167,274.606,344.187,272.931,344.188Z" transform="translate(-262.238 -332.485)" fill="#084199"/>
  <path id="Path_21376" data-name="Path 21376" d="M302.8,405.185a1.215,1.215,0,0,0-1.215.68,1.2,1.2,0,0,0-.007,1.524c.783.726.645,1.609.67,2.491.015.5-.058,1.085.72,1.065.7-.018.639-.549.636-1.013a3.616,3.616,0,0,1,.682-2.608C304.96,406.508,304.007,405.2,302.8,405.185Z" transform="translate(-292.395 -388.144)" fill="#084199"/>
</svg>
