<svg id="Group_49471" data-name="Group 49471" xmlns="http://www.w3.org/2000/svg" width="23.051" height="23.083" viewBox="0 0 23.051 23.083">
  <path id="Path_25561" data-name="Path 25561" d="M6026.672,1100.914a9.348,9.348,0,0,1-3.317-.765,21.53,21.53,0,0,1-8.479-6.351,20.388,20.388,0,0,1-3.05-4.879,11.072,11.072,0,0,1-.9-3,4.548,4.548,0,0,1,.246-2.454,3.473,3.473,0,0,1,.7-1.034c.534-.542,1.068-1.086,1.609-1.62a2.214,2.214,0,0,1,3.214-.056c.367.343.715.7,1.067,1.062.511.519,1.03,1.029,1.542,1.547a2.194,2.194,0,0,1,.048,3.254c-.451.462-.91.916-1.371,1.367a.168.168,0,0,0-.042.237,10.176,10.176,0,0,0,1.3,1.947,15.919,15.919,0,0,0,3.4,3.119c.276.184.573.329.863.487a.158.158,0,0,0,.225-.034c.44-.448.887-.891,1.334-1.334a2.34,2.34,0,0,1,1.258-.687,2.136,2.136,0,0,1,1.951.668c.65.645,1.294,1.3,1.94,1.945.222.223.444.444.665.669a2.216,2.216,0,0,1,.075,3.181c-.157.177-.327.343-.5.508-.358.351-.716.7-1.052,1.076A3.556,3.556,0,0,1,6026.672,1100.914Zm-14.386-15.877a4.781,4.781,0,0,0,.06.847,9.736,9.736,0,0,0,.87,2.664,20.707,20.707,0,0,0,9.617,9.826,9.992,9.992,0,0,0,3.512,1.115,2.317,2.317,0,0,0,2.172-.826,9.261,9.261,0,0,1,.737-.759c.225-.219.453-.437.663-.67a.8.8,0,0,0-.01-1.207c-.034-.037-.069-.072-.1-.107q-1.264-1.265-2.528-2.528a1.372,1.372,0,0,0-.176-.151.673.673,0,0,0-.776-.036,1.75,1.75,0,0,0-.367.306c-.5.5-1,1-1.5,1.5a1,1,0,0,1-1.2.236c-.38-.187-.76-.381-1.12-.6a16.214,16.214,0,0,1-3.724-3.254,11.307,11.307,0,0,1-1.885-2.844,1.082,1.082,0,0,1,.307-1.423c.523-.475,1.016-.982,1.508-1.489a.774.774,0,0,0-.006-1.231c-.016-.016-.03-.032-.047-.048q-1.065-1.075-2.133-2.15c-.171-.172-.344-.345-.529-.5a.724.724,0,0,0-.945-.044,1.671,1.671,0,0,0-.253.212c-.462.459-.911.932-1.386,1.377A2.21,2.21,0,0,0,6012.286,1085.036Z" transform="translate(-6010.864 -1077.831)" fill="#084199"/>
  <path id="Path_25562" data-name="Path 25562" d="M6398.718,1021.6a.7.7,0,0,1-.6.709.684.684,0,0,1-.789-.543,10,10,0,0,0-.516-1.913,10.407,10.407,0,0,0-8.028-6.682.716.716,0,0,1-.622-.767.7.7,0,0,1,.7-.641,3.9,3.9,0,0,1,.717.126,11.945,11.945,0,0,1,9.127,9.577C6398.711,1021.521,6398.715,1021.576,6398.718,1021.6Z" transform="translate(-6375.667 -1011.764)" fill="#084199"/>
  <path id="Path_25563" data-name="Path 25563" d="M6389.613,1137.977a.712.712,0,0,1-.624.746.7.7,0,0,1-.778-.583,5.846,5.846,0,0,0-2.752-4.023,5.558,5.558,0,0,0-1.983-.75.706.706,0,1,1,.226-1.392,7.28,7.28,0,0,1,5.893,5.854C6389.606,1137.888,6389.61,1137.949,6389.613,1137.977Z" transform="translate(-6370.533 -1127.982)" fill="#084199"/>
</svg>
