<svg xmlns="http://www.w3.org/2000/svg" width="20.124" height="11.894" viewBox="0 0 20.124 11.894">
  <path id="Path_40363" data-name="Path 40363" d="M-2259.251,2140.626a1.256,1.256,0,0,1,.747.421l9.268,8.145c.261.229.527.45.783.686a1,1,0,0,1-.024,1.646q-2.943,2.593-5.892,5.177-2.057,1.809-4.119,3.619a2.267,2.267,0,0,1-.522.372c-.355.156-.649-.014-.817-.4a.955.955,0,0,1,.262-1.181l3.421-3,5.685-5c.489-.431.487-.431-.021-.879q-4.514-3.962-9.027-7.921a1.011,1.011,0,0,1-.406-.92.8.8,0,0,1,.441-.693A1.965,1.965,0,0,1-2259.251,2140.626Z" transform="translate(2160.75 2259.928) rotate(90)"/>
</svg>
