<svg xmlns="http://www.w3.org/2000/svg" width="54" height="54" viewBox="0 0 54 54">
  <g id="Group_49705" data-name="Group 49705" transform="translate(-505 -39)">
    <circle id="Ellipse_4228" data-name="Ellipse 4228" cx="27" cy="27" r="27" transform="translate(505 39)" fill="#fff"/>
    <g id="Group_49697" data-name="Group 49697" transform="translate(521.635 52.971)">
      <path id="Path_9069" data-name="Path 9069" d="M-163.078,329.475a8.035,8.035,0,0,1-8.043,8,8.038,8.038,0,0,1-7.957-8.085,7.977,7.977,0,0,1,8.009-7.941A7.972,7.972,0,0,1-163.078,329.475Zm-14.139-.032a6.167,6.167,0,0,0,6.132,6.159,6.171,6.171,0,0,0,6.145-6.147,6.2,6.2,0,0,0-6.133-6.172A6.2,6.2,0,0,0-177.217,329.444Z" transform="translate(181.557 -321.45)" fill="#7b7b7b"/>
      <path id="Path_9070" data-name="Path 9070" d="M-187.009,461.813a15.269,15.269,0,0,1,10.215,4.011c.344.31.377.482.028.818-.905.873-.888.891-1.871.089a13.164,13.164,0,0,0-17.255.373c-.4.355-.609.414-1,0-.859-.921-.892-.908.1-1.729A15.269,15.269,0,0,1-187.009,461.813Z" transform="translate(197.535 -442.965)" fill="#7b7b7b"/>
    </g>
  </g>
</svg>
