<svg xmlns="http://www.w3.org/2000/svg" xmlns:xlink="http://www.w3.org/1999/xlink" width="59.609" height="59.618" viewBox="0 0 59.609 59.618">
  <defs>
    <linearGradient id="linear-gradient" x1="0.5" y1="-0.323" x2="0.5" y2="1" gradientUnits="objectBoundingBox">
      <stop offset="0" stop-color="#28abc5"/>
      <stop offset="1" stop-color="#084199"/>
    </linearGradient>
  </defs>
  <g id="_3TUfnR" data-name="3TUfnR" transform="translate(-435.151 -77.072)">
    <g id="Group_34029" data-name="Group 34029" transform="translate(435.151 77.072)">
      <path id="Path_21338" data-name="Path 21338" d="M439.415,128.115a9.666,9.666,0,0,1-.213-14.255,9.559,9.559,0,1,1,12.858,14.149c.182.184.412.1.611.1q5.3.009,10.6,0a1.3,1.3,0,0,1,1.209.5,1.137,1.137,0,0,1-.8,1.774,5.078,5.078,0,0,1-.658.014h-24.8c-.759,0-.76,0-.759.784,0,.379-.012.759.006,1.138a2.086,2.086,0,0,0,2.077,2.053c.12,0,.24,0,.359,0h45.758c.726,0,.738-.005.495-.665a7.137,7.137,0,0,1-.236-2.489c-.005-.822,0-.823-.851-.823q-5.66,0-11.32,0c-.849,0-1.338-.4-1.365-1.093a1.111,1.111,0,0,1,.967-1.174,3.887,3.887,0,0,1,.538-.017q6.408,0,12.817,0c1.145,0,1.494.354,1.5,1.5,0,.818-.006,1.637,0,2.456a2.135,2.135,0,0,0,2.144,2.3,2.109,2.109,0,0,0,2.079-2.294q.008-12.847,0-25.693,0-9.074,0-18.147a3.487,3.487,0,0,0-2.854-3.675,9.609,9.609,0,0,0-1.612-.063c-1.318-.008-2.636.026-3.952-.016-.55-.018-.69.171-.653.681a5.534,5.534,0,0,1-.056,1.432,3.469,3.469,0,0,1-6.869-.347A9.637,9.637,0,0,1,476.426,85c.023-.4-.144-.547-.525-.5a1.381,1.381,0,0,1-.18,0q-9.1,0-18.207-.011c-.532,0-.752.115-.708.688a4.956,4.956,0,0,1-.093,1.667,3.476,3.476,0,0,1-6.836-.72c0-.02,0-.04,0-.06-.036-.494.213-1.145-.1-1.444-.359-.345-1.023-.1-1.553-.114-1.078-.02-2.156-.012-3.234,0a3.48,3.48,0,0,0-3.583,3.424c-.047,1.156,0,2.316-.018,3.473-.006.381.155.476.5.465.638-.02,1.278-.005,1.916-.005H482.8a5.488,5.488,0,0,1,.718.016,1.121,1.121,0,0,1,1.006,1.148,1.1,1.1,0,0,1-1.027,1.12,7.01,7.01,0,0,1-.778.018H442.228c-.835,0-.835,0-.835.841q0,6.289,0,12.577c0,.851-.344,1.322-1,1.394a1.127,1.127,0,0,1-1.279-.983,4.421,4.421,0,0,1-.014-.6q0-9.553,0-19.106a5.792,5.792,0,0,1,6.1-6.086c1.4,0,2.8-.01,4.192.006.359,0,.506-.1.483-.471-.026-.438-.017-.878,0-1.317a3.471,3.471,0,0,1,6.939.054,11.822,11.822,0,0,1,0,1.2c-.035.434.151.537.553.537q9.253-.014,18.507,0c.406,0,.586-.109.554-.538a10.974,10.974,0,0,1,0-1.2,3.474,3.474,0,0,1,6.947.008c.011.3,0,.6,0,.9,0,.821,0,.822.851.822,1.5,0,2.995,0,4.492,0a5.816,5.816,0,0,1,6.038,6.1q.006,18.657,0,37.313c0,2.116,0,4.232,0,6.349a4.453,4.453,0,0,1-4.74,4.72q-25.065,0-50.13,0a4.444,4.444,0,0,1-4.734-4.72c0-.839-.006-1.677,0-2.515a1.173,1.173,0,0,1,1.317-1.336C437.4,128.108,438.332,128.115,439.415,128.115Zm13.493-7.269a7.225,7.225,0,1,0-7.232,7.253A7.232,7.232,0,0,0,452.908,120.846ZM452.161,83.2c0,.856-.008,1.712,0,2.567a1.2,1.2,0,1,0,2.368.019q.012-2.537,0-5.075a1.191,1.191,0,1,0-2.366-.019C452.15,81.532,452.161,82.368,452.161,83.2Zm28.9.115c0-.878.008-1.757,0-2.635a1.178,1.178,0,1,0-2.34,0q-.013,2.575,0,5.15a1.178,1.178,0,1,0,2.34,0C481.072,85,481.063,84.157,481.063,83.319Z" transform="translate(-435.151 -77.072)" fill="url(#linear-gradient)"/>
      <path id="Path_21339" data-name="Path 21339" d="M626.995,275.927a4.41,4.41,0,1,1-4.426-4.41A4.408,4.408,0,0,1,626.995,275.927Zm-4.43-2.1a2.112,2.112,0,0,0-2.088,2.1,2.11,2.11,0,1,0,4.221.015A2.109,2.109,0,0,0,622.565,273.828Z" transform="translate(-596.249 -248.223)" fill="url(#linear-gradient)"/>
      <path id="Path_21340" data-name="Path 21340" d="M708.952,275.94a4.406,4.406,0,1,1,4.427,4.4A4.407,4.407,0,0,1,708.952,275.94Zm4.412-2.112a2.115,2.115,0,0,0-2.122,2.123,2.107,2.107,0,0,0,4.215.019A2.092,2.092,0,0,0,713.364,273.828Z" transform="translate(-676.151 -248.223)" fill="url(#linear-gradient)"/>
      <path id="Path_21341" data-name="Path 21341" d="M536.267,275.909a4.407,4.407,0,1,1-4.437-4.391A4.393,4.393,0,0,1,536.267,275.909Zm-6.5.01a2.12,2.12,0,0,0,2.12,2.129,2.142,2.142,0,0,0,2.1-2.1,2.107,2.107,0,0,0-4.215-.026Z" transform="translate(-516.396 -248.224)" fill="url(#linear-gradient)"/>
      <path id="Path_21342" data-name="Path 21342" d="M622.588,381.458A4.41,4.41,0,1,1,627,377.037,4.409,4.409,0,0,1,622.588,381.458Zm-.014-6.507a2.107,2.107,0,0,0-2.1,2.086,2.11,2.11,0,1,0,4.22.032A2.1,2.1,0,0,0,622.573,374.952Z" transform="translate(-596.25 -337.23)" fill="url(#linear-gradient)"/>
      <path id="Path_21343" data-name="Path 21343" d="M713.38,381.459a4.41,4.41,0,1,1,4.382-4.449A4.393,4.393,0,0,1,713.38,381.459Zm-.044-6.506a2.113,2.113,0,0,0-2.1,2.087,2.145,2.145,0,0,0,2.128,2.13,2.122,2.122,0,0,0,2.086-2.162A2.089,2.089,0,0,0,713.337,374.953Z" transform="translate(-676.149 -337.231)" fill="url(#linear-gradient)"/>
      <path id="Path_21344" data-name="Path 21344" d="M808.453,275.943a4.4,4.4,0,1,1-4.4-4.425A4.389,4.389,0,0,1,808.453,275.943Zm-6.5-.005a2.108,2.108,0,1,0,2.13-2.108A2.1,2.1,0,0,0,801.95,275.938Z" transform="translate(-755.985 -248.224)" fill="url(#linear-gradient)"/>
      <path id="Path_21345" data-name="Path 21345" d="M808.45,377.084a4.4,4.4,0,1,1-4.381-4.447A4.384,4.384,0,0,1,808.45,377.084Zm-6.5-.049a2.108,2.108,0,1,0,2.093-2.083A2.1,2.1,0,0,0,801.947,377.035Z" transform="translate(-755.983 -337.23)" fill="url(#linear-gradient)"/>
      <path id="Path_21346" data-name="Path 21346" d="M488.289,423.12a1.264,1.264,0,0,1-.866-.4c-.66-.664-1.332-1.317-1.983-1.99a1.156,1.156,0,0,1-.056-1.7,1.181,1.181,0,0,1,1.7.1c.3.289.611.575.883.891.248.288.414.248.665-.009,1.086-1.112,2.19-2.206,3.293-3.3a1.168,1.168,0,1,1,1.637,1.613c-1.434,1.441-2.875,2.874-4.308,4.316A1.409,1.409,0,0,1,488.289,423.12Z" transform="translate(-479.061 -375.583)" fill="url(#linear-gradient)"/>
    </g>
  </g>
</svg>
