<svg xmlns="http://www.w3.org/2000/svg" xmlns:xlink="http://www.w3.org/1999/xlink" width="65.189" height="63.5" viewBox="0 0 65.189 63.5">
  <defs>
    <linearGradient id="linear-gradient" x1="0.5" y1="-0.323" x2="0.5" y2="1" gradientUnits="objectBoundingBox">
      <stop offset="0" stop-color="#28abc5"/>
      <stop offset="1" stop-color="#084199"/>
    </linearGradient>
  </defs>
  <g id="Group_34030" data-name="Group 34030" transform="translate(-757.586 -1507.65)">
    <g id="Group_18358" data-name="Group 18358" transform="translate(757.586 1507.65)">
      <path id="Path_20766" data-name="Path 20766" d="M228.611,363.229c-4.191,0-8.383.024-12.574-.019a1.421,1.421,0,0,0-1.638,1.1,15.123,15.123,0,1,1-20.767-18.633,1.606,1.606,0,0,0,1.063-1.72c-.041-5.334-.023-10.669-.017-16,0-4.226,2.731-6.928,6.971-7,2.134-.035,4.5.645,6.339-.265,1.781-.88,3.038-2.823,4.522-4.3,1.518-1.513,3.056-3.007,4.538-4.555.755-.789,1.377-.861,2.137-.021.8.881,1.726,1.648,2.5,2.547.667.773,1.139.92,1.869.045.821-.983,1.84-1.8,2.695-2.757.818-.916,1.465-.94,2.347-.031,2.686,2.769,5.468,5.444,8.152,8.215a2.964,2.964,0,0,0,2.728,1.141,10.1,10.1,0,0,1,1.712,0,6.583,6.583,0,0,1,6.635,6.628c.05,2.047.033,4.1,0,6.144-.013.811.041,1.392,1.11,1.271.9-.1,1.258.419,1.254,1.309q-.028,5.787,0,11.574c.006,1.011-.484,1.4-1.41,1.3-.781-.081-.968.258-.954.978.038,2.047.029,4.1.014,6.144a6.606,6.606,0,0,1-6.939,6.9c-2.048.014-4.1,0-6.144,0ZM221.3,322.68c-6.57,0-13.14-.013-19.71.006a4.835,4.835,0,0,0-5.2,5.159c-.019,5.189.008,10.378-.019,15.567,0,.883.1,1.176,1.16,1.024,10.034-1.442,18,5.725,17.692,15.9-.03.986.242,1.2,1.156,1.2,8.236-.027,16.472,0,24.707-.025a4.832,4.832,0,0,0,5.024-4.919c.05-2.093-.029-4.19.03-6.283.025-.9-.3-1.132-1.148-1.117-2.57.045-5.141.02-7.712.015-4.588-.008-7.762-2.934-7.746-7.137s3.182-7.063,7.813-7.07c2.523,0,5.047-.037,7.569.018.918.02,1.262-.23,1.226-1.193-.069-1.854-.016-3.713-.021-5.569-.009-3.626-1.932-5.567-5.54-5.571Q230.942,322.671,221.3,322.68Zm-21.2,50.061a13.43,13.43,0,1,0-13.4-13.615A13.425,13.425,0,0,0,200.1,372.741Zm41.791-25.254c1.761,0,3.523-.051,5.281.021.954.039,1.346-.166,1.319-1.226-.072-2.805-.051-5.615-.009-8.421.013-.836-.19-1.177-1.1-1.165-3.615.047-7.233-.035-10.848.043a5.282,5.282,0,0,0-5.295,5.4,5.352,5.352,0,0,0,5.512,5.347C238.467,347.509,240.18,347.491,241.893,347.487Zm-31.444-26.635h15.343c-2.521-2.514-4.849-4.822-7.156-7.149-.4-.4-.651-.379-1.042.017C215.29,316.047,212.961,318.35,210.449,320.852Zm25.092.109c-1.97-1.95-3.6-3.608-5.283-5.213-.95-.905-1.792-2.621-2.863-2.507-1.042.11-1.931,1.673-2.887,2.6a1.246,1.246,0,0,1-.1.1c-.5.376-.456.7,0,1.129,1.172,1.115,2.3,2.274,3.441,3.424a1.318,1.318,0,0,0,.988.473C230.916,320.954,233,320.961,235.542,320.961Z" transform="translate(-184.999 -310.951)" fill="url(#linear-gradient)"/>
      <path id="Path_20768" data-name="Path 20768" d="M361.425,411.944a3.15,3.15,0,0,1-3.069,3.239,3.175,3.175,0,1,1-.122-6.348A3.116,3.116,0,0,1,361.425,411.944Zm-3.165-1.408a1.418,1.418,0,0,0-1.452,1.431,1.347,1.347,0,0,0,1.514,1.48,1.311,1.311,0,0,0,1.371-1.469A1.391,1.391,0,0,0,358.261,410.536Z" transform="translate(-306.455 -380.858)" fill="url(#linear-gradient)"/>
    </g>
    <g id="Group_34030-2" data-name="Group 34030" transform="translate(765.283 1547.267)">
      <path id="Path_21183" data-name="Path 21183" d="M265.505,351.671c-.381-1.04.284-1.545,1.193-2.028,1.823-.968,3.607-2.01,5.381-3.065a1.131,1.131,0,0,1,1.338-.02c2,1.185,4.033,2.318,6.05,3.477.262.151.591.232.59.662,0,3.246-.4,6.391-2.28,9.166a11.978,11.978,0,0,1-4.588,3.8,1.018,1.018,0,0,1-1.052-.107,11.459,11.459,0,0,1-6.46-9.432A11.7,11.7,0,0,1,265.505,351.671Zm13.459.927c.036-1.621.035-1.62-1.056-2.24-1.491-.848-2.993-1.677-4.462-2.56a1.123,1.123,0,0,0-1.342-.016c-1.415.86-2.829,1.74-4.32,2.453a1.92,1.92,0,0,0-1.244,2.22c.286,3.079.854,6.08,3.321,8.189,3.06,2.616,2.748,2.607,5.784.02C278.2,358.489,278.765,355.392,278.964,352.6Z" transform="translate(-265.396 -346.348)" fill="url(#linear-gradient)"/>
      <path id="Path_21184" data-name="Path 21184" d="M295.948,381.282c-.175.193-.279.319-.395.435-1.088,1.088-2.19,2.162-3.26,3.266a.723.723,0,0,1-1.235-.019c-.411-.449-.85-.875-1.295-1.291-.266-.249-.4-.421-.054-.752s.531-.269.845.03c1.16,1.108,1.172,1.1,2.286-.018.657-.657,1.311-1.317,1.974-1.967.131-.128.243-.385.493-.215C295.521,380.9,295.709,381.081,295.948,381.282Z" transform="translate(-285.283 -374.685)" fill="url(#linear-gradient)"/>
    </g>
  </g>
</svg>
