<svg xmlns="http://www.w3.org/2000/svg" xmlns:xlink="http://www.w3.org/1999/xlink" width="64.896" height="54.225" viewBox="0 0 64.896 54.225">
  <defs>
    <linearGradient id="linear-gradient" x1="0.5" y1="-0.323" x2="0.5" y2="1" gradientUnits="objectBoundingBox">
      <stop offset="0" stop-color="#28abc5"/>
      <stop offset="1" stop-color="#084199"/>
    </linearGradient>
  </defs>
  <g id="TD6WjO.tif" transform="translate(-114.146 550.115)">
    <g id="Group_34028" data-name="Group 34028" transform="translate(114.146 -550.115)">
      <path id="Path_21336" data-name="Path 21336" d="M146.581-495.927H121.787c-1.156,0-1.293-.134-1.293-1.274q0-16.21.012-32.421c0-.675-.124-.988-.876-1.136a6.9,6.9,0,0,1-5.394-5.793,22.307,22.307,0,0,1-.083-2.949,1.264,1.264,0,0,1,.383-.828q3.825-4.644,7.64-9.3a1.233,1.233,0,0,1,1.052-.487q23.353.01,46.706,0a1.3,1.3,0,0,1,1.1.538q3.784,4.631,7.592,9.243a1.149,1.149,0,0,1,.361.611c.179,2.58-.008,5.054-1.983,7.034a6.515,6.515,0,0,1-3.541,1.946c-.629.108-.8.356-.8.98q.029,16.138.014,32.277c0,1.522-.038,1.556-1.593,1.559q-8.973.017-17.946.035-3.279.006-6.558,0Zm24.656-18.086c0-5.259-.008-10.518.012-15.776,0-.546-.114-.786-.7-.9a6.63,6.63,0,0,1-4.534-3.156c-.376-.612-.508-.433-.819.034a6.985,6.985,0,0,1-11.877-.046c-.332-.505-.442-.514-.78,0a6.979,6.979,0,0,1-11.913-.01c-.362-.552-.472-.441-.78.024a6.985,6.985,0,0,1-11.877.025c-.336-.512-.47-.576-.821-.013a6.66,6.66,0,0,1-4.407,3.11c-.643.135-.825.37-.824,1.028q.036,15.7,0,31.409c0,.7.141.94.9.938q13.729-.043,27.458,0c.773,0,.9-.253.9-.943-.024-6.339-.015-12.679-.014-19.018a6.2,6.2,0,0,1,6.047-6.34c.911-.04,1.828-.045,2.738.005a6.159,6.159,0,0,1,5.042,2.9,7.509,7.509,0,0,1,.993,4.351c-.017,6.075,0,12.151-.02,18.226,0,.627.159.84.8.813,1.2-.05,2.4-.053,3.6,0,.7.031.887-.192.883-.883C171.225-503.5,171.238-508.754,171.238-514.013ZM152.6-507.892c0,3.263,0,6.526-.006,9.789,0,.441.04.712.6.709q5.364-.031,10.729,0c.485,0,.608-.18.607-.633-.011-6.43.016-12.86-.021-19.29a4.734,4.734,0,0,0-3.813-4.777,13.026,13.026,0,0,0-2.8-.126c-3.347,0-5.294,1.935-5.3,5.261Q152.6-512.427,152.6-507.892Zm-6.02-40.774c-1.657,0-3.314.016-4.97-.01-.505-.008-.664.162-.659.662q.031,3.528,0,7.056c0,.475.161.621.625.619q5.006-.021,10.013,0c.468,0,.626-.15.622-.622q-.028-3.528,0-7.056c0-.5-.16-.667-.662-.659C149.9-548.651,148.241-548.666,146.585-548.666Zm12.5,8.321c1.607,0,3.214-.011,4.821.006.479.005.655-.084.454-.607q-1.385-3.59-2.715-7.2a.712.712,0,0,0-.8-.528c-2.182.017-4.365.021-6.547,0-.511-.005-.658.173-.653.666.02,2.325.023,4.651,0,6.976-.006.535.155.709.694.7C155.915-540.365,157.5-540.345,159.081-540.346Zm-25.122,0c1.585,0,3.17-.015,4.754.009.477.007.618-.159.615-.624q-.027-3.528,0-7.056c0-.5-.146-.666-.655-.66-2.089.024-4.178.028-6.267,0a.837.837,0,0,0-.928.665q-1.275,3.482-2.617,6.939c-.215.552-.176.758.486.742C130.885-540.371,132.422-540.345,133.959-540.346Zm-12.161,0c1.559,0,3.119-.013,4.678.009a.712.712,0,0,0,.792-.542q1.321-3.577,2.691-7.136c.2-.513.1-.668-.454-.661-1.919.023-3.839.018-5.758,0a1,1,0,0,0-.853.419q-3.007,3.676-6.027,7.34c-.111.135-.342.259-.215.476.1.164.308.088.467.089C118.679-540.344,120.239-540.346,121.8-540.346Zm49.494,0c1.608,0,3.215,0,4.823,0,.155,0,.38.071.428-.14.023-.1-.1-.257-.188-.364q-3.058-3.727-6.12-7.452a.936.936,0,0,0-.8-.366c-1.943.011-3.887.014-5.83,0-.47,0-.594.118-.416.583q1.379,3.594,2.712,7.205a.753.753,0,0,0,.862.547C168.269-540.358,169.781-540.345,171.293-540.346ZM121.246-538.9q-2.52,0-5.04,0c-.286,0-.553-.037-.619.4a5.828,5.828,0,0,0,3.921,6.255,5.71,5.71,0,0,0,7.327-6.261c-.041-.444-.34-.39-.621-.39Q123.73-538.907,121.246-538.9Zm12.649,0q-2.484,0-4.968,0c-.309,0-.6-.046-.657.434a5.837,5.837,0,0,0,3.822,6.185,5.73,5.73,0,0,0,7.436-6.194c-.062-.482-.361-.424-.665-.424Q136.379-538.907,133.9-538.9Zm12.674,0c-1.656,0-3.312,0-4.968,0-.273,0-.563-.07-.64.372a5.841,5.841,0,0,0,3.693,6.2,5.707,5.707,0,0,0,7.555-6.162c-.042-.492-.375-.412-.673-.413C149.881-538.907,148.225-538.9,146.569-538.9Zm18.323,1.2c0-1.4.1-1.194-1.18-1.2-3-.009-6,0-9,0-1.074,0-1.074,0-1.064,1.1,0,.024,0,.048,0,.072a5.619,5.619,0,0,0,5.6,5.734A5.649,5.649,0,0,0,164.893-537.7ZM172-538.9q-2.52,0-5.04,0c-.28,0-.557-.052-.628.386a5.808,5.808,0,0,0,4.75,6.461,5.72,5.72,0,0,0,6.511-6.159c-.028-.525-.156-.711-.7-.7C175.265-538.885,173.632-538.9,172-538.9Z" transform="translate(-114.146 550.115)" fill="url(#linear-gradient)"/>
      <path id="Path_21337" data-name="Path 21337" d="M223.458-352.551q0,4.143,0,8.285c0,1.029-.145,1.176-1.163,1.176q-8.325,0-16.65,0c-.982,0-1.177-.194-1.177-1.188q-.005-8.285,0-16.571c0-1.019.2-1.223,1.225-1.223q8.289,0,16.578,0c1.033,0,1.187.167,1.188,1.235Q223.46-356.693,223.458-352.551Zm-9.5-8.079c-2.448,0-4.9.012-7.345-.01-.509,0-.714.1-.712.67q.032,7.378,0,14.755c0,.532.15.7.692.7q7.381-.028,14.762,0c.559,0,.677-.194.675-.709q-.025-7.342,0-14.683c0-.566-.162-.739-.731-.733C218.85-360.614,216.4-360.629,213.953-360.629Z" transform="translate(-191.415 389.241)" fill="url(#linear-gradient)"/>
    </g>
  </g>
</svg>
